<?xml version="1.0" encoding="utf-8"?>
<!-- Generator: Adobe Illustrator 21.1.0, SVG Export Plug-In . SVG Version: 6.00 Build 0)  -->
<svg version="1.1" id="Layer_1" xmlns="http://www.w3.org/2000/svg" xmlns:xlink="http://www.w3.org/1999/xlink" x="0px" y="0px"
	 viewBox="0 0 1389.2 1363.6" style="enable-background:new 0 0 1389.2 1363.6;" xml:space="preserve">
<style type="text/css">
	.st0{opacity:0.51;fill:#E3E5E5;}
	.st1{fill-rule:evenodd;clip-rule:evenodd;fill:#E6E7E8;}
	.st2{fill-rule:evenodd;clip-rule:evenodd;fill:#EEF0F2;}
	.st3{fill-rule:evenodd;clip-rule:evenodd;fill:#D0D2D3;}
	.st4{fill-rule:evenodd;clip-rule:evenodd;fill:#E6E6E6;}
	.st5{fill-rule:evenodd;clip-rule:evenodd;fill:#FAA819;}
	.st6{fill-rule:evenodd;clip-rule:evenodd;fill:#F48120;}
	.st7{fill-rule:evenodd;clip-rule:evenodd;fill:#ED7524;}
	.st8{fill-rule:evenodd;clip-rule:evenodd;fill:#43525A;}
	.st9{fill-rule:evenodd;clip-rule:evenodd;fill:#58595B;}
	.st10{fill-rule:evenodd;clip-rule:evenodd;fill:#C2601D;}
	.st11{fill-rule:evenodd;clip-rule:evenodd;fill:#120E39;}
	.st12{fill-rule:evenodd;clip-rule:evenodd;fill:#384349;}
	.st13{fill-rule:evenodd;clip-rule:evenodd;fill:#4E4E4E;}
	.st14{fill-rule:evenodd;clip-rule:evenodd;fill:#DCDDDE;}
	.st15{fill-rule:evenodd;clip-rule:evenodd;fill:#E87B1F;}
	.st16{fill-rule:evenodd;clip-rule:evenodd;fill:#5CDAF7;}
	.st17{fill-rule:evenodd;clip-rule:evenodd;fill:#0096BF;}
	.st18{fill-rule:evenodd;clip-rule:evenodd;fill:#FACAB8;}
	.st19{fill-rule:evenodd;clip-rule:evenodd;fill:#A15641;}
	.st20{fill-rule:evenodd;clip-rule:evenodd;fill:#F3B9AC;}
	.st21{fill-rule:evenodd;clip-rule:evenodd;fill:#BD6C59;}
	.st22{fill-rule:evenodd;clip-rule:evenodd;fill:#9A543C;}
	.st23{fill-rule:evenodd;clip-rule:evenodd;fill:#363638;}
	.st24{fill-rule:evenodd;clip-rule:evenodd;fill:#FFFFFF;}
	.st25{fill-rule:evenodd;clip-rule:evenodd;fill:#EDAEA5;}
	.st26{fill-rule:evenodd;clip-rule:evenodd;fill:#7E2225;}
	.st27{fill-rule:evenodd;clip-rule:evenodd;fill:#404041;}
	.st28{fill-rule:evenodd;clip-rule:evenodd;fill:#0489A8;}
	.st29{fill-rule:evenodd;clip-rule:evenodd;fill:#BBBDBF;}
	.st30{fill:#2CABE1;}
	.st31{fill:#FBB041;}
	.st32{fill:#FFFFFF;}
	.st33{fill:#D89628;}
	.st34{fill:#D4D4D2;}
	.st35{fill:#A99565;}
	.st36{fill:#FFDD94;}
	.st37{fill:#FAAC1B;}
	.st38{fill:#FFCC65;}
	.st39{fill:#EE4237;}
	.st40{fill:#8DC63F;}
	.st41{fill:#ED6559;}
	.st42{fill:#5B96CA;}
	.st43{fill:#52717F;}
	.st44{clip-path:url(#SVGID_2_);}
	.st45{fill:#073857;}
	.st46{fill:none;}
	.st47{fill:#EBF7FD;}
</style>
<g>
	<path class="st0" d="M339.5,104.3c4,0,7.8,1,11.2,2.7c1.3-10.3,10.1-18.2,20.8-18.2c7.2,0,13.5,3.6,17.3,9.2
		c0.9-8.9,8.4-15.9,17.5-15.9c3.7,0,7.2,1.2,10,3.1c6.6-9.6,17.5-13,29.4-11.3c1.7-16.1,14.8-28.8,31.1-29.9c-0.1-1-0.2-2.1-0.2-3.2
		c0-16.7,13.5-30.2,30.2-30.2c8.8,0,16.6,3.7,22.2,9.7c4.9-8.4,14-14.1,24.5-14.1c15.5,0,28.1,12.4,28.3,27.9c2.8-1,5.8-1.5,8.9-1.5
		c15,0,27.2,12.2,27.2,27.2c0,6.2-2.1,12-5.6,16.6c6.2,4.7,10.3,12.2,10.3,20.6c0,2.4-0.3,4.7-0.9,6.9c7.7,2.1,13.4,9.1,13.4,17.5
		h-319C319.4,111.3,328.6,104.3,339.5,104.3z"/>
	<path class="st0" d="M1360.1,808.9c-4,0-7.8,1-11.2,2.7c-1.3-10.3-10.1-18.2-20.8-18.2c-7.2,0-13.5,3.6-17.3,9.2
		c-0.9-8.9-8.4-15.9-17.5-15.9c-3.7,0-7.2,1.2-10,3.1c-6.6-9.6-17.5-13-29.4-11.3c-1.7-16.1-14.8-28.8-31.1-29.9
		c0.1-1,0.2-2.1,0.2-3.2c0-16.7-13.5-30.2-30.2-30.2c-8.8,0-16.6,3.7-22.2,9.7c-4.9-8.4-14-14.1-24.5-14.1
		c-15.5,0-28.1,12.4-28.3,27.9c-2.8-1-5.8-1.5-8.9-1.5c-15,0-27.2,12.2-27.2,27.2c0,6.2,2.1,12,5.6,16.6
		c-6.2,4.7-10.3,12.2-10.3,20.6c0,2.4,0.3,4.7,0.9,6.9c-7.7,2.1-13.4,9.1-13.4,17.5h319C1380.2,816,1371,808.9,1360.1,808.9z"/>
	<path class="st0" d="M415.1,466.6c-1.5-4.3-5.2-7.4-9.7-7.4c-1.3,0-2.6,0.3-3.8,0.8c-1.6-3.9-5.2-6.6-9.4-6.6c-1,0-1.9,0.2-2.8,0.4
		c-0.2-0.1-0.4-0.2-0.6-0.3c0.1-0.7,0.2-1.4,0.2-2.1c0-7.3-5.4-13.3-12.1-13.3c-1.1,0-2.2,0.2-3.3,0.5c-3-8-10.2-13.6-18.6-13.6
		c-3.6,0-7,1-9.9,2.9c-7.1-6.1-15-8.6-23.2-8.3c0.9-2.5,1.4-5.2,1.4-8c0-12.2-9-22.1-20.1-22.1c-3.2,0-6.2,0.8-8.9,2.3
		c-4.4-17-18.7-29.5-35.6-29.5c-16.2,0-29.9,11.4-35,27.3c-0.7-0.1-1.4-0.1-2.1-0.1c-7.2,0-13.5,4.2-17,10.4
		c-3.4-2.6-7.5-4.2-11.9-4.2c-9.4,0-17.4,7-19.7,16.6c-7.5,2.2-14.1,6.7-19.7,12.5c-3.5-3-7.8-4.8-12.5-4.8
		c-10.3,0-18.8,8.3-20.2,19.2c-1.5-0.8-3.2-1.2-5-1.2c-5.4,0-10,3.9-11.5,9.3c-1.3-0.6-2.6-0.9-4.1-0.9c-5.6,0-10.1,4.8-10.3,10.9
		c-0.2,0-0.4,0.1-0.6,0.2c-1.4-0.3-2.9-0.5-4.4-0.5c-7.2,0-13.6,3.7-17.7,9.5H415.1z"/>
	<path class="st0" d="M1370.3,257.9c0-7.7-20.4-23.2-39.9-15.1c-5.2-6.1-14.2-10.1-24.5-10.1c-0.6,0-1.2,0-1.7,0
		c-0.4-1.1-0.8-2.1-1.3-3.1c-4.9-10.3-15.4-17.4-27.5-17.4c-5.9,0-11.4,1.7-16,4.6c-4.3-5.3-10.8-8.6-18.1-8.6c-1,0-2,0.1-3,0.2
		c-0.6,0.1-1.1,0.1-1.7,0.3c-0.3-2.4-0.9-4.6-1.9-6.7c-3.7-8.3-12.1-14.2-21.8-14.2c-1.4,0-2.8,0.1-4.2,0.4
		c-0.5,0.1-0.9,0.2-1.4,0.3c-0.5-2.6-1.4-5.1-2.5-7.5c-5.3-10.8-16.4-18.3-29.2-18.3c-11.3,0-21.2,5.7-27,14.4c-3.4-1.3-7-2-10.8-2
		c-15.9,0-28.9,12.1-30.4,27.6c-0.7,0-1.4-0.1-2.2-0.1c-17.3,0-31.6,12.3-34.8,28.7c-2.9,0.9-5.5,2.2-7.8,3.7
		c-3.9-1.5-8.3-2.3-13-2.3c-13.6,0-25,7-28.2,16.4c-14.5,1.1-26.1,4.4-31.1,8.8H1370.3z"/>
</g>
<g>
	<g>
		<path class="st1" d="M747.2,1360H3.7V953.5c16.4,8.1,27.6,23.8,27.6,41.9c0,5.4-1,10.5-2.8,15.3c7.6,1.4,14.8,3.7,21.6,6.8
			c7.2-10.1,18.9-16.6,32-16.6c6,0,11.7,1.4,16.8,3.8c1.2-21.5,18.5-38.6,39.7-38.6c9.6,0,18.4,3.5,25.3,9.3
			c7.1-11,19.3-18.3,33.1-18.3c5.4,0,10.6,1.1,15.3,3.1l390-246.9c81.7-27.7,95.9-12.6,43.1,63l-213.7,306.3
			c0.3,2.2,0.5,4.4,0.5,6.7c0,19.1-12.8,35.2-30,39.7c1.2,3.9,1.8,8,1.8,12.3c0,13.2-6.1,24.9-15.5,32.4c1.5,5.1,2.3,10.5,2.3,16.2
			c0,15-5.6,28.4-14.4,37.6c12.9,6.7,21.8,20.6,21.8,36.5c0,3.8-0.5,7.5-1.5,11c25.6,1.1,47.7,17.1,59.5,40.5c6.3-1.9,13-3,19.9-3
			c13.8,0,26.7,4.2,37.5,11.4c5.5-23.4,22.2-40.4,42-40.4c20.7,0,38,18.6,42.7,43.6c9-4.9,19.3-7.7,30.2-7.7
			c18.7,0,35.5,8.2,47.1,21.2c7-2.7,14.6-4.2,22.5-4.2C718,1336.5,735.6,1345.6,747.2,1360z"/>
		<path class="st2" d="M661.5,748.9c-9.9,8.5-402.8,483.6-402.8,483.6l-40.6-58.8l430.3-438.3L661.5,748.9z"/>
		<polygon class="st2" points="614.4,707.2 632.4,718.9 166.7,1121.7 98.8,1092.7 		"/>
		<path class="st3" d="M3.7,1194.4v-80.6c2.6-0.4,5.4-0.7,8.1-0.7c3.3,0,6.6,0.3,9.7,0.9c5.8-8.4,14.7-13.7,24.7-13.7
			c3.7,0,7.3,0.8,10.7,2.1c-1.8-4.1-2.8-8.5-2.8-13.2c0-18.8,15.9-34.1,35.6-34.1c18.7,0,34.1,13.8,35.5,31.4
			c5.5-2.1,11.8-3.3,18.3-3.3c5.3,0,10.3,0.8,15,2.2c0-0.7-0.1-1.4-0.1-2.2c0-16.5,13-29.8,29-29.8c16,0,29,13.4,29,29.8
			c0,2.3-0.2,4.5-0.7,6.6c0.2,0,0.5,0,0.7,0c26.3,0,47.7,21.1,47.7,47.1c0,0.3,0,0.6,0,0.9c0.3,0,0.5,0,0.8,0
			c16.2,0,29.4,17.2,29.4,38.4c0,14.9-6.5,27.8-16.1,34.2c0.2,1.6,0.3,3.3,0.3,5c0,4.5-0.8,8.8-2.2,13c21.6,1.8,38.6,20,38.6,42.1
			c0,23.3-18.9,42.2-42.3,42.2c-7.8,0-15.1-2.1-21.4-5.8c-7.9,10.3-20.1,16.9-34,16.9c-23.7,0-42.9-19.5-42.9-43.5
			c0-0.6,0-1.1,0-1.7l0,0c-25.5,0-46.1-18.7-46.1-41.8c0-3,0.4-6,1-8.9c-14-4.9-24-18-24-33.4c0-4.6,0.9-9,2.5-13
			c-6,3.6-13.1,5.7-20.7,5.7c-12.2,0-23.2-5.5-30.5-14c-1.8,0.8-3.8,1.3-5.7,1.7c-7.9,12-22.5,20-39.2,20
			C9,1195,6.3,1194.8,3.7,1194.4z"/>
		<path class="st1" d="M414.2,1360H3.7v-213.6c4.2,0,8.3,0.4,12.1,1.2c11-10.2,27-16.6,44.7-16.6c28.8,0,52.9,16.8,58.9,39.4
			c22.7,1.6,41,18.1,44.3,39.4c5.4-1.3,11.2-2,17.1-2c32,0,58,20.2,58,45.2c0,3.3-0.4,6.4-1.3,9.5c1-0.1,2-0.1,2.9-0.1
			c10,0,19.3,3.4,27.2,9.2c10.3-10.9,25.5-17.7,42.4-17.7c31.1,0,56.3,23.3,56.3,52c0,4.9-0.7,9.7-2.1,14.2
			C387.8,1324.6,406.7,1339.9,414.2,1360z"/>
		<path class="st3" d="M285.2,1360H3.7v-43.3c1-0.1,2.1-0.1,3.2-0.1c3.3,0,6.6,0.3,9.7,0.9c5.8-8.4,14.7-13.7,24.7-13.7
			c3.7,0,7.3,0.8,10.6,2.1c-1.8-4.1-2.8-8.5-2.8-13.2c0-18.8,16-34.1,35.6-34.1c18.7,0,34.1,13.8,35.5,31.4
			c5.5-2.1,11.8-3.3,18.3-3.3c5.3,0,10.3,0.8,15,2.2c0-0.7-0.1-1.4-0.1-2.2c0-16.5,13-29.8,29-29.8c16,0,29,13.4,29,29.8
			c0,2.3-0.2,4.5-0.7,6.6c0.2,0,0.5,0,0.7,0c26.3,0,47.7,21.1,47.7,47.1c0,0.3,0,0.6,0,0.9c0.3,0,0.5,0,0.8,0
			C270.6,1341.3,280,1348.8,285.2,1360z"/>
	</g>
	<path class="st4" d="M491,1360c7.9-18,4.4-39.4-10.3-53.1c-0.4-0.4-0.8-0.7-1.2-1.1c6.9-14.1,4.6-31.2-7-41.9
		c-7.4-6.9-17.2-9.8-26.8-8.9c-0.5-3.2-1.4-6.2-2.6-9.2c8.9-12.2,8-30-1.4-45c0.3-0.3,0.6-0.6,0.9-0.9c12.6-13.6,9.5-37.1-7.1-52.4
		c-10-9.3-22.6-13.5-33.8-12.4c-1.4-7.8-5.4-15.6-11.8-21.9l-228.9,246.3l0.5,0.5H491z"/>
	<path class="st4" d="M312.1,1064.9c-3.9-17.8-21.5-29.2-39.3-25.3l-0.2,0c-0.2-1.4-0.4-2.8-0.7-4.1c-3.6-16.5-16.5-28.3-30.9-29.8
		c0.3-4.2,0.1-8.7-0.9-13.2c-4.3-20-20.9-33.3-36.9-29.9c-3.4,0.7-6.5,2.2-9.3,4.2c-6.9-19.1-26-30.9-45.1-26.7
		c-8.2,1.8-15.1,6.2-20.3,12.2c-5.9-14.5-22-23-38.5-19.4c-13.9,3-24,13.7-26.5,26.4c-1.9-1.1-3.9-2-6-2.7
		c0.7-5.3,0.5-10.9-0.8-16.5c-5.4-25.1-29-41.3-53.1-37.1v257.6l299-64.9C310.7,1088,314.6,1076.5,312.1,1064.9z"/>
</g>
<g>
	<path class="st5" d="M684.8,681.9l17.7,21.1c-7.3,19.2-33.5,59.9-126.9,76.2c29.1-92.8,71.9-113.7,91.4-118.4L684.8,681.9z"/>
	<path class="st6" d="M603.2,754.7c10.8-23.3,24.7-46.4,42.1-64.2c8.2-8.3,18.1-16.3,28.7-21.5l21.6,25.7
		c-6.5,10.1-15.6,19.1-24.7,26.2C651.3,736.2,627.1,747,603.2,754.7z"/>
</g>
<g>
	<path class="st7" d="M736.6,699.9c13.5,30.2,11.6,66-4.7,96c12-4.5,23.5-11.3,33.8-20.4c37.5-32.9,48.4-85.5,29.7-127.2
		L736.6,699.9z"/>
	<polygon class="st8" points="690.4,639.2 657.9,657.8 681.8,686.3 705.8,714.8 728.3,684.3 	"/>
	<polygon class="st9" points="739.8,683.1 693.2,627.6 669.5,648.7 716.1,704.3 	"/>
	<path class="st7" d="M673.3,624.7c-27.1-18.1-61.8-21.3-92.9-8.9c6.1-11.5,14.2-22.3,24.4-31.5c37-33.5,89.1-37.1,126.5-12
		L673.3,624.7z"/>
	<path class="st1" d="M729,706.6c39.9-13.8,81.8-38,120.4-71.9c35.7-31.3,63.9-66.7,83.5-102.2L907.3,482l-45.4-33.1
		c-36.8,14.8-74.7,38.4-109.8,70.2c-38.1,34.5-67.4,73.6-86.3,112.4L729,706.6z"/>
	<path class="st6" d="M932.8,532.5c19.1-34.8,29.8-69.7,31-101c-30.4-3.3-65.6,2.7-101.9,17.3C887.6,474.5,911.5,502.2,932.8,532.5z
		"/>
	<path class="st7" d="M656.1,705.8c11.9-6,32.4-21.1,54.4-40.6c22.5-19.9,40.4-39,47.8-50.2c-0.3,0.1-0.6,0.3-0.8,0.4
		c0.2-0.3,0.4-0.5,0.5-0.8c-11.8,5.9-32.7,21.5-55.1,41.5C681.1,675.8,663.6,694.5,656.1,705.8z"/>
	<path class="st10" d="M732.2,795.2c15.4-28.7,17.6-62.6,5.8-91.8c11-4.2,22.1-9.1,33.1-14.9C774.9,725.9,761.4,765.7,732.2,795.2z"
		/>
	<path class="st10" d="M670.2,622.7c-26.4-16.2-59.3-18.8-89.1-7.2c32.5-25.6,72.7-33.6,108.2-24.4
		C682.2,601.5,675.8,612.1,670.2,622.7z"/>
	<path class="st11" d="M686.9,684.9c2.5-2,5.1-4,7.7-6.2l20.1,23.9l-9,12.2l-6.4-7.6l-16.3-19.4
		C684.4,686.9,685.6,685.9,686.9,684.9z"/>
	<path class="st11" d="M714.7,702.6l-20.1-23.9c2.1-1.7,4.2-3.5,6.4-5.3l18.8,22.3l2.5,3l-6.2,5.5L714.7,702.6z"/>
	<polygon class="st12" points="680.2,684.3 681.8,686.3 705.8,714.8 728.3,684.3 707.7,659.8 	"/>
	<polygon class="st13" points="739.8,683.1 714.9,653.4 691.2,674.6 716.1,704.3 	"/>
	<path class="st14" d="M729,706.6c39.9-13.8,81.8-38,120.4-71.9c35.7-31.3,63.9-66.7,83.5-102.2L907.3,482L697.4,669L729,706.6z"/>
	<path class="st15" d="M932.8,532.5c19.1-34.8,29.8-69.7,31-101l-64.6,57.6C911,503,922.2,517.4,932.8,532.5z"/>
	<path class="st7" d="M656.1,705.8c11.9-6,32.4-21.1,54.4-40.6c22.5-19.9,40.4-39,47.8-50.2c-0.3,0.1-0.6,0.3-0.8,0.4L656.1,705.8z"
		/>
</g>
<g>
	<path class="st16" d="M747,422.4c1.9-2.6,13.9-10.4,13.9-10.4l34.7,39.2l30.5,14.3l-11.7,7.3l-22.3-7.8L747,422.4z"/>
	<path class="st17" d="M701.9,406.9c-1.6,1.6-5.2,0.2-15.7,2.5c-10.6,2.3-13.2,3.6-14.3,5.4c-0.9,1.6,17.4,92.9,21.4,127.3
		l55.2-14.3c-4.6-28,16.7-114.4,13.9-115.9c-4-1.9-21.4-2.8-26.4-3.5C734.4,407.6,706,406.7,701.9,406.9z"/>
	<path class="st18" d="M703.5,378.3c0.9,3.6,4.3,8.7,2.5,18.3c-1.8,9.6-7.2,12-7.2,12s10.7,13.8,26.3,15.3
		c15.6,1.5,14.6-8.6,14.6-8.6c0-0.1-1.9-3.2-4.2-5.4c-1.9-1.8-4.1-2.1-7.1-7.2c-6.8-11.5-7.5-22.9-7.5-22.9L703.5,378.3z"/>
	<path class="st19" d="M678.2,374.1c0,0.3,0.6,4.1,9.4,12.8c8.8,8.7,17.5,6.9,17.2,6.4c-0.3-0.5-5.9-22.2-5.9-22.2L678.2,374.1z"/>
	<path class="st18" d="M725.5,308.9c4.9,3.7,13.1,15.8,14.2,19.3c1.1,3.6,0.7,10.3,3.3,13.7c13.1,17.1,21.2,39,0,49.1
		c-8.7,4.2-36.1,12.2-44.5,4.4c-6.8-6.3-12.4-15-12.4-15s-7.8,1.5-13-2.7c-5.2-4.3-9.6-13.6-6.6-17.1c3-3.5,5.6-3,5.6-3
		s-11.5-19.1-9.8-27.1c1.7-8,7.7-15.5,27.8-24.8C710.1,296.5,722,304.2,725.5,308.9z"/>
	<path class="st18" d="M723.9,376.9c-0.3,0-2.5-1-2.5-1s-1.1,2.5,4.1,8.4c5.2,5.9,8.3-1.7,13.4-3.6c4.7-2.2,8.8,2.2,9.5-5.7
		c0.6-7.9-1.1-8.4-0.9-8.5c0.3-0.1-6.7,5-12.9,7.5C728.3,376.6,723.9,376.9,723.9,376.9z"/>
	<path class="st20" d="M725.5,308.9c1.5,1.1,3.3,3.1,5.2,5.3c-3,3-7.3,5.5-13.2,6c-37.2,3-36.9,2.6-42.5,13.1
		c0,0.1-7.9,9.4-7.4,12.2c0,0-4.1-10.3-2.6-21.7c3.5-5.7,10.7-11.5,25.1-18.1C710.1,296.5,722,304.2,725.5,308.9z"/>
	<path class="st19" d="M687.2,348.4c-1.2-4.7-11.5-10.2-12.3-15.4c-0.8-5.2,2.3-10.6,8-12.6c8.7-2.9,35.9,2.4,47.7-8.8
		c8-7.6,10.1-22-3.3-30.5c-3.6,6.5-11.4,10.6-18,12.2c1.4-1.1,1.8-2.8,1.6-5.5c-2.2,4.5-35.4,8-44.5,17.2
		c-9.1,9.2-8.1,21.5-8.1,21.5s-3.8,10.7-4.9,16c-1.1,5.2,12.2,20.3,12.2,20.3s1.2-3.4,5-4.5c7.9-2.1,14-1.1,18.3,5.3
		c3.2,4.8,4.8,6.1,5.8,5.7C697.2,367.9,688.6,353.9,687.2,348.4z"/>
	<path class="st21" d="M710.9,287.8L710.9,287.8L710.9,287.8c-2.2,4.5-35.4,8-44.5,17.2c-9.1,9.2-8.1,21.5-8.1,21.5
		s-3.8,10.7-4.9,16c-1.1,5.2,12.2,20.3,12.2,20.3s1-2.9,4-4.1c-3.7-2.3-15.4-5.3-14.4-15.2c1-9.9,6-17.8,6-17.8s-0.6-4.2,2.6-10.3
		c3.2-6.1,9.2-14.1,20.3-16.1c11.1-2,22.2-6.6,24.6-8.5C710.9,288.7,710.9,287.8,710.9,287.8z"/>
	<path class="st22" d="M696,344.3c-3.5,2.2,0.4,5,0.9,4.8c8.9-3.2,14.5-6.2,19.7-6c3.5,0.1,4.8-4.5-0.6-4.9
		C710.8,337.8,699.5,342.1,696,344.3z"/>
	<path class="st22" d="M728,333.5c-1.9,2.4,0.3,4.3,1.9,3.4c3.6-2,7.4-5,9.7-5c0.6,0,0.2-3.1-2.3-3.5
		C734.9,328.1,729.3,331.8,728,333.5z"/>
	
		<ellipse transform="matrix(0.9724 -0.2335 0.2335 0.9724 -62.2048 176.101)" class="st23" cx="712.6" cy="350.8" rx="3.4" ry="3.8"/>
	<ellipse transform="matrix(0.9723 -0.2336 0.2336 0.9723 -59.725 181.6918)" class="st23" cx="737.3" cy="343" rx="3.4" ry="3.8"/>
	
		<ellipse transform="matrix(0.9724 -0.2334 0.2334 0.9724 -61.7905 176.3094)" class="st24" cx="714" cy="349.2" rx="1.2" ry="1.4"/>
	
		<ellipse transform="matrix(0.9724 -0.2333 0.2333 0.9724 -59.3137 181.7637)" class="st24" cx="738.6" cy="341.6" rx="1.2" ry="1.4"/>
	<path class="st25" d="M726.1,345.7c2.1-1.9,3.4,4.3,8.5,6.8c5.1,2.5,10.2,0.8,7.5,5.3C733.3,371.5,719.4,353.9,726.1,345.7z"/>
	<path class="st26" d="M744.9,366.8c1.5,4.1-1.8,9.1-7.4,11.3c-5.6,2.2-11.4,0.7-13-3.3c3.2-0.3,6.9-1.2,10.7-2.7
		C739,370.6,742.4,368.7,744.9,366.8z"/>
	<path class="st24" d="M727.1,374.4c2.5-0.5,5.3-1.2,8.2-2.3c2.9-1.1,5.5-2.5,7.8-3.9c0.2,0.4,0,0.1,0.4,1.2c0.4,1-2.2,4.2-6.8,6
		c-4.5,1.8-8.7,1.2-9.1,0.2C727.2,374.5,727.2,374.8,727.1,374.4z"/>
	<path class="st25" d="M670.4,364.4c-2.7,5.9,6.9,14.5,14.4,11.4c2.6-1,1.1-5.5-0.2-6c-1.3-0.5-2.4,0.2-2.5-1.5
		c-0.1-1.7,1.7-2.3,1.3-3.9c-0.4-1.6-3.1-2.3-4.4-3C675.8,359.8,672.3,360.2,670.4,364.4z"/>
	<path class="st22" d="M674.9,333c-0.4-2.6,3.2-10.3,9.1-11.8c12.8-3.4,38.8,3.6,49.4-12.8c5.5-8,5.6-19.8-6-27.3
		c0,0,2.4,12.2-4.4,17.6c-1.6,1.3-3,2.3-4.2,3.2c-3.7,2.6-5.2,3.1-5.5,3.1c-0.2,0,1.2-2.1,2.3-3.7c0.7-1,1.3-1.9,1.3-2.1
		c0-0.2-0.8,0.7-2.4,1.9c-2.8,2.2-7.7,5.5-13.6,6.1c-9.1,0.9-20.1,3.7-26.1,11.5C669,326.5,675.3,335.6,674.9,333z"/>
	<path class="st27" d="M803.7,519c1.6,0.6,8.9,95.9,15.2,100.7c1.1,0.8-5.9,19.2-10.5,18.2c-19.3-4.5-20.9-90.9-21.5-91
		c-18.9-2.5-67.7,22.9-83.3,11.6c-6.4-4.6-12.2-16.1-8.6-24.3C703.8,514.1,788.9,513.9,803.7,519z"/>
	<path class="st28" d="M748.9,502.8l-1.6,14.3c0,0-26.1,3.4-33,10.4c-6.9,7-11.7,19.8-17.8,19c-6.1-0.8-5.7-13.3-5.8-18.5
		c-0.2-5.2,20.3-18.5,28.9-21.7C728.2,503.1,748.9,502.8,748.9,502.8z"/>
	<path class="st29" d="M716.1,417.5c0.4-0.2,12.6-0.1,12.6-0.1s5.1,9.6,4.7,9.5c-0.4-0.2-16.9-3.1-16.9-3.1L716.1,417.5z"/>
	<polygon class="st16" points="743.1,414 747.8,421.2 739.4,417.7 740,415.1 	"/>
	<polygon class="st29" points="743.1,414 739.8,421.9 731.7,407.9 729.9,405 732.6,404 	"/>
	<path class="st27" d="M742.5,415.6c-0.5,0.2-18.3,0.9-18,1.8c0.3,0.8,4.3,9.9,4.7,10.2c0.4,0.3,8.5,0.7,8.7,0.1
		C738.1,427.1,742.5,415.6,742.5,415.6z"/>
	<path class="st16" d="M728.7,417.3c-0.8,1.2-8.4,15.6-8.5,15.2c-0.1-0.4-25.8-23.5-25.8-23.5l5.9-6.7L728.7,417.3z"/>
	<path class="st27" d="M735.7,420.7l-6.5,6.8c0,0,0.3,2-7.5,30c-7.8,28-45.5,56.9-45.5,56.9l-4.9,19.5l23.7-5.6
		c0,0,21.5-24.3,29.8-45c8.3-20.7,15.1-55.2,13.1-55.7L735.7,420.7z"/>
	<path class="st18" d="M801.9,495.5c0-2.6,7.9-2.6,7.9-2.6s13.1-7.9,13.1-5.2c0,2.6-7.3,6.6-7.3,6.6s11.6,0.7,14.4,1.2
		c1.9,0.3,5.2,1.1,3.9,2.4c-1.3,1.3-3.7,0.6-3.7,0.6s-12.2-0.5-11.9-0.2c0.2,0.2,15.8,6,15.3,7.5c-0.5,1.5-16.5-3.5-16.5-3.5
		s9.1,6.1,8.5,7.5c-0.6,1.4-10.5-5.1-10.5-5.1s4.3,8.1,3.2,9.3c-1.2,1.2-5.8-8.5-6.1-8.5c-0.3,0-3.6-1-7-2.1
		c-3.3-1.1-3.5-7.8-3.5-7.8L801.9,495.5z"/>
	<path class="st16" d="M673.1,413.6c-5.5,2.3-13.3,18.5-6.4,24.3c6.9,5.8,53.2,36.7,61.9,38.4c8.7,1.6,74.3,25,74.3,25l5.1-8.4
		L731.6,462C724.8,455.4,678.6,411.3,673.1,413.6z"/>
	<path class="st27" d="M818.9,619.7c0,0,7.2,0.2,18.8-1.9c11.6-2.1,19.5-8.1,20.3-6.2c1.5,3.8-22,35-29.8,28.8l-0.1,5.4l-12.3,6.8
		L804,633l4.1-8.9L818.9,619.7z"/>
</g>
<g id="g82_1_" transform="translate(68.913385,305.91166)">
	<path id="path84_1_" class="st30" d="M430.7,856.4c18.7,9.1,27.4,29.6,19.5,45.7c-4.7,9.7-14.4,15.6-25.4,16.7l-1.1,14.4l-7.4-14.4
		c-4.7-0.5-9.5-1.9-14.1-4.1c-18.7-9.2-27.4-29.6-19.5-45.7C390.5,852.9,412,847.3,430.7,856.4L430.7,856.4z"/>
	<path id="path86_1_" class="st31" d="M409.2,831.7c-18.7-9.2-40.2-3.5-48.1,12.6c-4.7,9.7-3.5,20.9,2.3,30.3l-10.7,9.7l15.9-2.9
		c3.3,3.4,7.3,6.4,11.9,8.6c18.7,9.1,40.2,3.5,48.1-12.6C436.5,861.3,427.8,840.8,409.2,831.7L409.2,831.7z"/>
	<path id="path88_1_" class="st32" d="M377.6,858.7c2.5,1.2,5.6,0.2,6.8-2.3c1.2-2.5,0.2-5.6-2.3-6.8c-2.5-1.2-5.6-0.2-6.8,2.3
		C374,854.4,375.1,857.5,377.6,858.7L377.6,858.7z"/>
	<path id="path90_1_" class="st32" d="M392.3,865.9c2.5,1.2,5.6,0.2,6.8-2.3c1.2-2.5,0.2-5.6-2.3-6.8c-2.5-1.2-5.6-0.2-6.8,2.3
		C388.8,861.6,389.8,864.7,392.3,865.9L392.3,865.9z"/>
	<path id="path92_1_" class="st32" d="M407.1,873.2c2.5,1.2,5.6,0.2,6.8-2.3c1.2-2.5,0.2-5.6-2.3-6.8c-2.5-1.2-5.6-0.2-6.8,2.3
		C403.6,868.9,404.6,872,407.1,873.2L407.1,873.2z"/>
</g>
<g id="g94_1_" transform="translate(68.913385,305.91166)">
	<polygon id="polygon96_1_" class="st33" points="31.4,605.7 -19.8,586.6 14.4,544 65.6,563.1 	"/>
	
		<rect id="rect98_1_" x="-5.8" y="548" transform="matrix(0.9639 -0.2663 0.2663 0.9639 -155.4431 28.2245)" class="st34" width="64.4" height="78.6"/>
	
		<rect id="rect100_1_" x="-1.1" y="566.6" transform="matrix(0.9639 -0.2662 0.2662 0.9639 -150.5908 26.1662)" class="st35" width="44.6" height="3.7"/>
	
		<rect id="rect102_1_" x="0.7" y="573.3" transform="matrix(0.9639 -0.2662 0.2662 0.9639 -152.2977 26.8975)" class="st35" width="44.6" height="3.7"/>
	
		<rect id="rect104_1_" x="2.5" y="579.9" transform="matrix(0.9639 -0.2663 0.2663 0.9639 -154.0606 27.6375)" class="st35" width="44.6" height="3.7"/>
	
		<rect id="rect106_1_" x="4.4" y="586.6" transform="matrix(0.9639 -0.2663 0.2663 0.9639 -155.7381 28.3523)" class="st35" width="44.6" height="3.7"/>
	
		<rect id="rect108_1_" x="6.2" y="593.3" transform="matrix(0.9639 -0.2663 0.2663 0.9639 -157.4829 29.0914)" class="st35" width="44.6" height="3.7"/>
	
		<rect id="rect110_1_" x="8.1" y="599.9" transform="matrix(0.9639 -0.2662 0.2662 0.9639 -159.1032 29.8097)" class="st36" width="44.6" height="3.7"/>
	<polygon id="polygon112_1_" class="st37" points="31.4,605.7 -19.8,586.6 -5.8,637 79.5,613.4 65.6,563.1 	"/>
	<polygon id="polygon114_1_" class="st38" points="22.1,602.2 22.1,602.2 -5.8,637 79.5,613.4 37.7,597.9 	"/>
</g>
<g id="g166_1_" transform="translate(68.913385,305.91166)">
	
		<rect id="rect168_1_" x="429" y="755.9" transform="matrix(0.9932 -0.1166 0.1166 0.9932 -85.107 60.9907)" class="st39" width="99.9" height="4.7"/>
	
		<rect id="rect170_1_" x="426.6" y="720.5" transform="matrix(0.9932 -0.1167 0.1167 0.9932 -83.4653 56.1736)" class="st40" width="22.3" height="40"/>
	
		<rect id="rect172_1_" x="451.2" y="696.8" transform="matrix(0.9932 -0.1165 0.1165 0.9932 -81.5954 58.8382)" class="st37" width="22.3" height="60.7"/>
	
		<rect id="rect174_1_" x="475.6" y="673.4" transform="matrix(0.9932 -0.1168 0.1168 0.9932 -80.0416 61.7161)" class="st41" width="22.3" height="81.3"/>
	
		<rect id="rect176_1_" x="500.7" y="660.4" transform="matrix(0.9932 -0.1168 0.1168 0.9932 -78.9436 64.6007)" class="st42" width="22.3" height="91.3"/>
</g>
<g id="g184_1_" transform="translate(68.913385,305.91166)">
	<g id="g186_1_">
		<path id="path188_1_" class="st43" d="M213,503.7l-33.9-5.1c-1.4-0.2-2.7,0.6-2.9,1.7l-0.2,1.4c-0.2,1.2,0.8,2.3,2.2,2.5l33.9,5.1
			c1.4,0.2,2.7-0.6,2.9-1.7l0.2-1.4C215.4,505.1,214.4,504,213,503.7z"/>
		<path id="path190_1_" class="st43" d="M212,510.1l-33.9-5.1c-1.4-0.2-2.7,0.6-2.9,1.7l-0.2,1.4c-0.2,1.2,0.8,2.3,2.2,2.5l34,5.1
			c1.4,0.2,2.7-0.6,2.8-1.7l0.2-1.4C214.4,511.4,213.4,510.3,212,510.1L212,510.1z"/>
		<path id="path192_1_" class="st43" d="M211.1,516.5l-33.9-5.1c-1.4-0.2-2.7,0.6-2.9,1.7l-0.2,1.4c-0.2,1.2,0.8,2.3,2.2,2.5
			l33.9,5.1c1.4,0.2,2.7-0.6,2.9-1.7l0.2-1.4C213.5,517.8,212.5,516.7,211.1,516.5z"/>
		<path id="path194_1_" class="st43" d="M180.4,518.3l25.5,3.8c-0.6,4.2-7.9,6-13.8,5.1C186.2,526.4,179.8,522.6,180.4,518.3
			L180.4,518.3z"/>
	</g>
	<path id="path196_1_" class="st31" d="M184.4,406.4c0,0,11.9-8.7,26-7.7c0,0,23.9,1,32.5,27.7c0,0-0.2,17.7-3.9,25.9
		c0,0-13.4,19-13.6,21l-9.2,17.7c0,0-2.1,8.5-5.8,8l-25.9-3.9c0,0-4.8-0.6-3.7-7.7c0,0-2.4-19.3-4.9-24.7c0,0-6.8-23-5.8-29.7
		C170.1,433.2,167.8,420.1,184.4,406.4L184.4,406.4z"/>
	<g id="g198_1_">
		<g>
			<defs>
				<path id="SVGID_1_" d="M184.4,406.4c0,0,11.9-8.7,26-7.7c0,0,23.9,1,32.5,27.7c0,0-0.2,17.7-3.9,25.9c0,0-13.4,19-13.6,21
					l-9.2,17.7c0,0-2.1,8.5-5.8,8l-25.9-3.9c0,0-4.8-0.6-3.7-7.7c0,0-2.4-19.3-4.9-24.7c0,0-6.8-23-5.8-29.7
					C170.1,433.2,167.8,420.1,184.4,406.4L184.4,406.4z"/>
			</defs>
			<clipPath id="SVGID_2_">
				<use xlink:href="#SVGID_1_"  style="overflow:visible;"/>
			</clipPath>
			<g id="g206_1_" class="st44">
				<path id="path208_1_" class="st45" d="M185.3,493.3c2.2-3.1,3.9-6.5,5.7-9.9c2.6-5.1,4.9-10.2,6.8-15.6
					c1.7-4.6,3.2-9.6,3.1-14.6c0-1.6-0.3-3.4-1.2-4.7c-0.9-1.4-3-2.8-4.7-2.2c-2,0.7-2.6,3.3-2.5,5.1c0.1,2.5,1,5.2,2.9,7
					c1.8,1.7,4.7,2.3,7.1,2.5c2.6,0.2,5.4-0.3,7.3-2.1c2-1.9,2.8-4.6,2.3-7.3c-0.4-1.8-2-3.7-4-3.5c-2,0.3-3.1,2.5-3.4,4.3
					c-0.5,3.1,0.7,7,2.7,9.4c1.4,1.8,3.6,2.7,5.9,2.2c2.6-0.6,4.5-3.1,5.6-5.3c0.8-1.6,2.8-5.9,1-7.5c-1.4-1.2-3.8,1.6-4.5,2.5
					c-2.1,2.7-3,6.3-3.9,9.5c-1,3.7-1.7,7.6-2.1,11.5c-0.9,7.9-0.9,15.9-1.9,23.8c-0.1,0.7,1.3-0.6,1.4-1.1c1-8.6,1-17.2,2.1-25.8
					c0.6-4.5,1.6-9,3-13.3c0.7-1.9,1.4-3.9,3-5.2c1.2-1,2.1-0.2,2.1,1.2c0,3.6-2.7,8.7-6.8,8.2c-3.3-0.4-5.2-4-5.9-6.9
					c-0.4-1.7-0.8-3.7-0.1-5.4c0.4-1,2-0.4,2.6,0c2.4,1.5,2.7,6,0.5,7.8c-2.3,1.9-6.1,1.5-8.8,0.8c-2.7-0.7-4.8-2-5.9-4.6
					c-0.6-1.3-0.9-2.7-0.9-4.1c0-0.6,0-1.2,0.2-1.8c0.2-0.6,0.9-0.4,1.4-0.3c1.8,0.5,3.2,2.1,3.7,3.8c1.3,4.3-0.3,9.6-1.6,13.7
					c-1.7,5.5-4,10.9-6.6,16.1c-1.9,3.8-3.8,7.9-6.3,11.3C184,493.8,184.6,494.3,185.3,493.3L185.3,493.3L185.3,493.3z"/>
			</g>
		</g>
	</g>
	<g id="g210_1_">
		<path id="path212_1_" class="st46" d="M211.1,401c-19-2.8-36.8,10.3-39.6,29.3c-0.9,5.9-0.2,12,2,18c6.6,17.7,8,27.8,8.2,38.4
			c0,1.2,0.1,4.8,1,6.1c0.3,0.4,1,0.9,3.5,1.3l10.7,1.6l10.7,1.6c2.5,0.4,3.3,0.1,3.7-0.2c1.2-0.9,2.3-4.4,2.7-5.5
			c3.3-10.1,7.6-19.4,19.1-34.3c3.9-5.1,6.3-10.6,7.2-16.6C243.2,421.6,230.1,403.8,211.1,401L211.1,401z"/>
		<path id="path214_1_" class="st32" d="M211.6,397.6c-20.9-3.1-40.4,11.3-43.5,32.2c-1,6.9-0.1,13.6,2.2,19.7
			c6.8,18.1,7.8,27.9,8,37.2c0.1,7.8,1.6,9.9,7.4,10.7c2.4,0.4,6.5,1,10.7,1.6c4.3,0.6,8.3,1.2,10.7,1.6c5.8,0.9,7.8-0.7,10.2-8.1
			c2.9-8.9,6.8-17.9,18.6-33.3c4-5.1,6.9-11.3,7.9-18.1C246.9,420.2,232.5,400.7,211.6,397.6L211.6,397.6z M233.1,457.1
			c-11.5,14.9-15.8,24.2-19.1,34.3c-0.4,1.1-1.5,4.6-2.7,5.5c-0.4,0.3-1.2,0.6-3.7,0.2l-10.7-1.6l-10.7-1.6
			c-2.5-0.4-3.2-0.9-3.5-1.3c-0.9-1.3-0.9-4.9-1-6.1c-0.2-10.6-1.6-20.7-8.2-38.4c-2.2-6-2.9-12-2-18c2.9-19,20.6-32.1,39.6-29.3
			c19,2.9,32.1,20.6,29.3,39.6C239.5,446.5,237,452.1,233.1,457.1L233.1,457.1z"/>
	</g>
	<path id="path216_1_" class="st32" d="M187.3,422.1c-1.6,1-9.5,6.5-3.9,19.2c0.4,0.9,0,2-0.9,2.4c-0.3,0.1-0.7,0.2-1,0.1
		c-0.6-0.1-1.1-0.5-1.4-1c-6.9-15.5,3.2-22.5,5.3-23.7c0.8-0.5,1.9-0.2,2.4,0.6C188.4,420.5,188.2,421.6,187.3,422.1L187.3,422.1z"
		/>
	<g id="g218_1_">
		<path id="path220_1_" class="st47" d="M262.8,440.7l-12.4-1.9c-0.8-0.1-1.4,0.4-1.6,1.2c-0.1,0.7,0.4,1.5,1.2,1.6l12.4,1.9
			c0.8,0.1,1.5-0.4,1.6-1.2C264.1,441.6,263.6,440.8,262.8,440.7z"/>
		<path id="path222_1_" class="st47" d="M249.2,420.3c0.2,0,0.5,0,0.7-0.1l11.6-4.6c0.7-0.3,1.1-1.1,0.8-1.8c-0.3-0.7-1.1-1-1.8-0.8
			l-11.6,4.6c-0.7,0.3-1.1,1.1-0.8,1.8C248.3,419.9,248.7,420.2,249.2,420.3z"/>
		<path id="path224_1_" class="st47" d="M235,399.4c0.2,0.2,0.4,0.3,0.6,0.3c0.5,0.1,1-0.1,1.3-0.5l7.8-9.8c0.5-0.6,0.4-1.5-0.2-1.9
			c-0.6-0.5-1.5-0.4-1.9,0.2l-7.8,9.8C234.3,398,234.4,398.9,235,399.4z"/>
		<path id="path226_1_" class="st47" d="M167.7,404.3l-9.8-7.8c-0.6-0.5-1.5-0.4-1.9,0.2c-0.5,0.6-0.4,1.5,0.2,1.9l9.8,7.8
			c0.2,0.2,0.4,0.3,0.6,0.3c0.5,0.1,1-0.1,1.3-0.5C168.4,405.6,168.3,404.7,167.7,404.3z"/>
		<path id="path228_1_" class="st47" d="M253.9,465.9l-9.8-7.8c-0.6-0.5-1.4-0.4-1.9,0.2c-0.5,0.6-0.4,1.5,0.2,1.9l9.8,7.8
			c0.2,0.2,0.4,0.3,0.7,0.3c0.5,0.1,1-0.1,1.3-0.5C254.6,467.3,254.5,466.4,253.9,465.9L253.9,465.9z"/>
		<path id="path230_1_" class="st47" d="M159.9,446.7l-11.6,4.6c-0.7,0.3-1,1.1-0.8,1.8c0.2,0.5,0.6,0.8,1.1,0.9
			c0.2,0,0.5,0,0.7-0.1l11.6-4.6c0.7-0.3,1-1.1,0.8-1.8C161.5,446.7,160.7,446.4,159.9,446.7z"/>
		<path id="path232_1_" class="st47" d="M184.6,390c0.2,0.5,0.6,0.8,1.1,0.9c0.2,0,0.5,0,0.7-0.1c0.7-0.3,1.1-1.1,0.8-1.8l-4.5-11.7
			c-0.3-0.7-1.1-1.1-1.8-0.8c-0.7,0.3-1.1,1.1-0.8,1.8L184.6,390z"/>
		<path id="path234_1_" class="st47" d="M212,389.7c0.8,0.1,1.4-0.4,1.6-1.1l1.9-12.4c0.1-0.8-0.4-1.4-1.2-1.6
			c-0.7-0.1-1.4,0.4-1.6,1.2l-1.9,12.4C210.7,388.8,211.2,389.6,212,389.7z"/>
		<path id="path236_1_" class="st47" d="M163.4,427.2c0.1-0.8-0.4-1.5-1.1-1.6l-12.4-1.9c-0.7-0.1-1.4,0.4-1.6,1.2
			c-0.1,0.7,0.4,1.5,1.1,1.6l12.4,1.9C162.6,428.5,163.3,428,163.4,427.2z"/>
	</g>
</g>
</svg>
