<?xml version="1.0" encoding="utf-8"?>
<!-- Generator: Adobe Illustrator 21.1.0, SVG Export Plug-In . SVG Version: 6.00 Build 0)  -->
<svg version="1.1" id="Layer_1" xmlns="http://www.w3.org/2000/svg" xmlns:xlink="http://www.w3.org/1999/xlink" x="0px" y="0px"
	 viewBox="0 0 3840 750" style="enable-background:new 0 0 3840 750;" xml:space="preserve">
<style type="text/css">
	.st0{opacity:0.15;fill:#0096BF;}
</style>
<path class="st0" d="M3674.6,529V135h-103.8v394h-41.4V321.8h-13.3v-36.5h-28.9v-20.1h-8.9v20.1h-26.6v36.5h-15.5V529h-167.3V407.8
	h-14.2v-30.2h5.9c0-17.5-13-31.9-30.8-34.1V326h-7.1v17.3c-16,1.4-30.8,16.2-30.8,34.2h4.2v30.2h-14.2v24.8
	c-5.3-9.2-14.2-15.5-26.7-16.4v-12h-7.1v12.2c-16,2.2-29,16.6-29,34.1h4.2V529h-45.5V290.1h-89.5V529h-195.5V343.1h-118V529h-19.1
	V156.8l-5.5-6.1v-33.9h-5.5v27.7l-44.9-50.6V529h-14.5V294.3h-11.2v-11.3h-35.7v-9.1h-24.3v9.1h-36.7v11.3h-10.1V529h-30.5V256.2
	H2422v-16.3h-18.1v-10h-52.6v10h-18.1v16.3h-14.6V529h-25.3V338.4h-118V529h-22.7v-80.7c0-35.9-46.3-59.6-46.3-59.6V529H2076v-9.9
	h-34v-10.5c28-3.6,49.1-28.4,49.1-58.3c0-32.4-24.9-58.8-55.7-58.8c-30.8,0-56,26.4-56,58.8c0,29.9,21.6,54.6,48.6,58.3v10.5h-34
	v9.9h-25.6V396.8h-79.2V529h-20.9v-72.3h-43.3V529h-26.7v-72.3h-148V529h-25.6V397.5L1546,338v191h-15.3l-7.1-59.6l3-43.8
	c3.4-1.5,5.5-4.2,5.5-7.3c0-4.4-4.1-8-11.1-8.6v-30.6h-3v30.6c-6,0.5-10.9,4.1-10.9,8.6c0,3.1,2.4,5.7,5.8,7.3l3,43.8l-7,59.6h-16.4
	V281.2h-13.8V248h-29.5v-41.4h-9.8V248h-27.6v33.1H1396V529h-31.7V164.2l-91.4-35.5V529H1243V421.2h-12v-26.7h5
	c0-15.5-11-28.2-25.9-30.1v-15.5h-6v15.3c-13.4,1.2-25.9,14.3-25.9,30.3h3.5v26.7h-12v22c-4.5-8.1-12-13.7-22.4-14.5v-10.6h-6v10.8
	c-13.4,1.9-24.4,14.7-24.4,30.1h3.5V529h-30.8V249.8H987.5V529h-36.3V279.3C951.2,168.9,823,96,823,96v433h-35V358.9h-13.8V232.2
	h-16.5v-33h-24.8v-44.1h-19.3v44.1h-24.8v33h-16.5v126.7h-13.8V529h-27.5V313.2h-81.3V529h-42.9V224h-90.5v305h-23.7V340.1h-70.2
	V529h-23.8v-68h-60.9v68h-18.2V310.7h-7.4v-16.6h-12.9v16.6H153V529H-34.9v221h2160v-1.1H3859V529H3674.6z M173.3,506.5h-14.8v-16.6
	h14.8V506.5z M173.3,482.4h-14.8v-16.6h14.8V482.4z M173.3,458.4h-14.8v-16.6h14.8V458.4z M173.3,434.4h-14.8v-16.6h14.8V434.4z
	 M173.3,410.4h-14.8v-16.6h14.8V410.4z M173.3,362.4h-14.8v-16.6h14.8V362.4z M173.3,338.4h-14.8v-16.6h14.8V338.4z M193.6,506.5
	h-14.8v-16.6h14.8V506.5z M193.6,482.4h-14.8v-16.6h14.8V482.4z M193.6,434.4h-14.8v-16.6h14.8V434.4z M193.6,410.4h-14.8v-16.6
	h14.8V410.4z M193.6,386.4h-14.8v-16.6h14.8V386.4z M193.6,362.4h-14.8v-16.6h14.8V362.4z M193.6,338.4h-14.8v-16.6h14.8V338.4z
	 M213.9,482.4h-14.8v-16.6h14.8V482.4z M213.9,458.4h-14.8v-16.6h14.8V458.4z M213.9,434.4h-14.8v-16.6h14.8V434.4z M213.9,386.4
	h-14.8v-16.6h14.8V386.4z M213.9,362.4h-14.8v-16.6h14.8V362.4z M252.5,509h-7.4v-16.6h7.4V509z M252.5,486.8h-7.4v-16.6h7.4V486.8z
	 M265.4,509H258v-16.6h7.4V509z M278.3,486.8H271v-16.6h7.4V486.8z M291.3,509h-7.4v-16.6h7.4V509z M291.3,486.8h-7.4v-16.6h7.4
	V486.8z M383.4,486h-53.6v-5.5h53.6V486z M383.4,467.5h-53.6V462h53.6V467.5z M383.4,449h-53.6v-5.5h53.6V449z M383.4,430.6h-53.6
	V425h53.6V430.6z M383.4,414h-53.6v-7.4h53.6V414z M383.4,395.5h-53.6v-7.4h53.6V395.5z M383.4,377h-53.6v-7.4h53.6V377z
	 M383.4,358.6h-53.6v-7.4h53.6V358.6z M438,490.1H425v-16.3H438V490.1z M438,443.4H425v-16.3H438V443.4z M438,420.1H425v-16.3H438
	V420.1z M438,396.7H425v-16.3H438V396.7z M438,350H425v-16.3H438V350z M438,326.7H425v-16.3H438V326.7z M438,280H425v-16.3H438V280z
	 M456.4,513.4h-11.1v-16.3h11.1V513.4z M456.4,490.1h-11.1v-16.3h11.1V490.1z M456.4,466.7h-11.1v-16.3h11.1V466.7z M456.4,443.4
	h-11.1v-16.3h11.1V443.4z M456.4,420.1h-11.1v-16.3h11.1V420.1z M456.4,396.7h-11.1v-16.3h11.1V396.7z M456.4,373.4h-11.1V357h11.1
	V373.4z M456.4,350h-11.1v-16.3h11.1V350z M456.4,326.7h-11.1v-16.3h11.1V326.7z M456.4,303.4h-11.1V287h11.1V303.4z M456.4,280
	h-11.1v-16.3h11.1V280z M476.8,513.4h-12.9v-16.3h12.9V513.4z M476.8,466.7h-12.9v-16.3h12.9V466.7z M476.8,443.4h-12.9v-16.3h12.9
	V443.4z M476.8,396.7h-12.9v-16.3h12.9V396.7z M476.8,373.4h-12.9V357h12.9V373.4z M476.8,350h-12.9v-16.3h12.9V350z M476.8,303.4
	h-12.9V287h12.9V303.4z M495.2,513.4h-11.1v-16.3h11.1V513.4z M495.2,490.1h-11.1v-16.3h11.1V490.1z M495.2,466.7h-11.1v-16.3h11.1
	V466.7z M495.2,443.4h-11.1v-16.3h11.1V443.4z M495.2,420.1h-11.1v-16.3h11.1V420.1z M495.2,396.7h-11.1v-16.3h11.1V396.7z
	 M495.2,350h-11.1v-16.3h11.1V350z M495.2,326.7h-11.1v-16.3h11.1V326.7z M495.2,303.4h-11.1V287h11.1V303.4z M495.2,280h-11.1
	v-16.3h11.1V280z M578.8,485h-7.4v-31.4h7.4V485z M578.8,448h-7.4v-31.4h7.4V448z M578.8,374.2h-7.4v-31.4h7.4V374.2z M593.6,485
	h-7.4v-31.4h7.4V485z M593.6,411.1h-7.4v-31.4h7.4V411.1z M593.6,374.2h-7.4v-31.4h7.4V374.2z M608.3,448h-7.4v-31.4h7.4V448z
	 M608.3,411.1h-7.4v-31.4h7.4V411.1z M608.3,374.2h-7.4v-31.4h7.4V374.2z M623.1,485h-7.4v-31.4h7.4V485z M623.1,448h-7.4v-31.4h7.4
	V448z M623.1,411.1h-7.4v-31.4h7.4V411.1z M683.4,447h-11v-57.8h11V447z M705.4,447h-11v-57.8h11V447z M705.4,358.9h-11v-46.8h11
	V358.9z M705.4,295.5h-11v-46.8h11V295.5z M727.4,447h-11v-57.8h11V447z M727.4,358.9h-11v-46.8h11V358.9z M727.4,295.5h-11v-46.8
	h11V295.5z M749.4,447h-11v-57.8h11V447z M749.4,358.9h-11v-46.8h11V358.9z M749.4,295.5h-11v-46.8h11V295.5z M771.5,447h-11v-57.8
	h11V447z M855.3,429.2h-13.8v-61.5h13.8V429.2z M855.3,345.1h-13.8v-61.5h13.8V345.1z M855.3,261h-13.8v-61.5h13.8V261z
	 M880.2,429.2h-13.8v-61.5h13.8V429.2z M880.2,261h-13.8v-61.5h13.8V261z M905.1,345.1h-13.8v-61.5h13.8V345.1z M930,429.2h-13.8
	v-61.5H930V429.2z M930,345.1h-13.8v-61.5H930V345.1z M1010.4,506.3h-10.9v-16.1h10.9V506.3z M1010.4,462.7h-10.9v-13.8h10.9V462.7z
	 M1010.4,421.3h-10.9v-13.8h10.9V421.3z M1010.4,400.7h-10.9v-13.8h10.9V400.7z M1010.4,359.3h-10.9v-16.1h10.9V359.3z
	 M1010.4,315.7h-10.9v-13.8h10.9V315.7z M1010.4,295h-10.9v-13.8h10.9V295z M1032.2,485.7h-10.9v-16.1h10.9V485.7z M1032.2,462.7
	h-10.9v-13.8h10.9V462.7z M1032.2,442h-10.9v-13.8h10.9V442z M1032.2,400.7h-10.9v-13.8h10.9V400.7z M1032.2,380h-10.9v-16.1h10.9
	V380z M1032.2,359.3h-10.9v-16.1h10.9V359.3z M1032.2,338.6h-10.9v-16.1h10.9V338.6z M1032.2,315.7h-10.9v-13.8h10.9V315.7z
	 M1032.2,295h-10.9v-13.8h10.9V295z M1054.1,506.3h-10.9v-16.1h10.9V506.3z M1054.1,462.7h-10.9v-13.8h10.9V462.7z M1054.1,442
	h-10.9v-13.8h10.9V442z M1054.1,421.3h-10.9v-13.8h10.9V421.3z M1054.1,400.7h-10.9v-13.8h10.9V400.7z M1054.1,359.3h-10.9v-16.1
	h10.9V359.3z M1054.1,315.7h-10.9v-13.8h10.9V315.7z M1054.1,295h-10.9v-13.8h10.9V295z M1075.9,506.3H1065v-16.1h10.9V506.3z
	 M1075.9,485.7H1065v-16.1h10.9V485.7z M1075.9,442H1065v-13.8h10.9V442z M1075.9,400.7H1065v-13.8h10.9V400.7z M1075.9,380H1065
	v-16.1h10.9V380z M1075.9,359.3H1065v-16.1h10.9V359.3z M1075.9,338.6H1065v-16.1h10.9V338.6z M1075.9,315.7H1065v-13.8h10.9V315.7z
	 M1075.9,295H1065v-13.8h10.9V295z M1133.9,498.2h-4.5v-22h4.5V498.2z M1147.4,498.2h-4.5v-22h4.5V498.2z M1160.8,498.2h-4.5v-22
	h4.5V498.2z M1195.2,498.2h-4.5v-22h4.5V498.2z M1195.2,458.9h-4.5v-22h4.5V458.9z M1195.2,419.6h-4.5v-22h4.5V419.6z M1208.6,498.2
	h-4.5v-22h4.5V498.2z M1208.6,458.9h-4.5v-22h4.5V458.9z M1208.6,419.6h-4.5v-22h4.5V419.6z M1222.1,498.2h-4.5v-22h4.5V498.2z
	 M1222.1,458.9h-4.5v-22h4.5V458.9z M1222.1,419.6h-4.5v-22h4.5V419.6z M1354.7,498.4h-72.2v-7.6h72.2V498.4z M1354.7,483.2h-72.2
	v-7.6h72.2V483.2z M1354.7,468.1h-72.2v-7.6h72.2V468.1z M1354.7,437.7h-72.2v-7.6h72.2V437.7z M1354.7,422.5h-72.2v-7.6h72.2V422.5
	z M1354.7,407.3h-72.2v-7.6h72.2V407.3z M1354.7,392.1h-72.2v-7.6h72.2V392.1z M1354.7,376.9h-72.2v-7.6h72.2V376.9z M1354.7,361.7
	h-72.2v-7.6h72.2V361.7z M1354.7,346.5h-72.2v-7.6h72.2V346.5z M1354.7,331.3h-72.2v-7.6h72.2V331.3z M1354.7,300.9h-72.2v-7.6h72.2
	V300.9z M1354.7,285.7h-72.2v-7.6h72.2V285.7z M1354.7,270.5h-72.2v-7.6h72.2V270.5z M1354.7,255.3h-72.2v-7.6h72.2V255.3z
	 M1354.7,240.2h-72.2v-7.6h72.2V240.2z M1354.7,225h-72.2v-7.6h72.2V225z M1354.7,209.8h-72.2v-7.6h72.2V209.8z M1354.7,194.6h-72.2
	V187h72.2V194.6z M1413.7,500.7h-9.8V480h9.8V500.7z M1413.7,469.7h-9.8V449h9.8V469.7z M1413.7,438.6h-9.8v-20.7h9.8V438.6z
	 M1413.7,407.5h-9.8v-20.7h9.8V407.5z M1413.7,376.5h-9.8v-20.7h9.8V376.5z M1413.7,345.4h-9.8v-20.7h9.8V345.4z M1413.7,314.3h-9.8
	v-20.7h9.8V314.3z M1431.4,500.7h-9.8V480h9.8V500.7z M1431.4,469.7h-9.8V449h9.8V469.7z M1431.4,407.5h-9.8v-20.7h9.8V407.5z
	 M1431.4,345.4h-9.8v-20.7h9.8V345.4z M1431.4,314.3h-9.8v-20.7h9.8V314.3z M1431.4,279.1h-9.8v-20.7h9.8V279.1z M1449.1,500.7h-9.8
	V480h9.8V500.7z M1449.1,438.6h-9.8v-20.7h9.8V438.6z M1449.1,407.5h-9.8v-20.7h9.8V407.5z M1449.1,376.5h-9.8v-20.7h9.8V376.5z
	 M1449.1,345.4h-9.8v-20.7h9.8V345.4z M1449.1,314.3h-9.8v-20.7h9.8V314.3z M1449.1,279.1h-9.8v-20.7h9.8V279.1z M1466.9,500.7h-9.8
	V480h9.8V500.7z M1466.9,469.7h-9.8V449h9.8V469.7z M1466.9,438.6h-9.8v-20.7h9.8V438.6z M1466.9,407.5h-9.8v-20.7h9.8V407.5z
	 M1466.9,376.5h-9.8v-20.7h9.8V376.5z M1466.9,314.3h-9.8v-20.7h9.8V314.3z M1466.9,279.1h-9.8v-20.7h9.8V279.1z M1484.6,500.7h-9.8
	V480h9.8V500.7z M1484.6,469.7h-9.8V449h9.8V469.7z M1484.6,438.6h-9.8v-20.7h9.8V438.6z M1484.6,407.5h-9.8v-20.7h9.8V407.5z
	 M1484.6,376.5h-9.8v-20.7h9.8V376.5z M1484.6,345.4h-9.8v-20.7h9.8V345.4z M1484.6,314.3h-9.8v-20.7h9.8V314.3z M1555.4,523.6h-3.7
	V353.3h3.7V523.6z M1589.1,523.6h-7.4v-86.1h7.4V523.6z M1618.2,523.6h-3.7V401.7h3.7V523.6z M1668.5,495.4h-9V486h9V495.4z
	 M1685.6,495.4h-9V486h9V495.4z M1702.7,495.4h-9V486h9V495.4z M1719.8,495.4h-9V486h9V495.4z M1736.9,495.4h-9V486h9V495.4z
	 M1754,495.4h-9V486h9V495.4z M1771.1,495.4h-9V486h9V495.4z M1788.2,495.4h-9V486h9V495.4z M1788.3,475.9h-128.7v-9.6h128.7V475.9z
	 M1863.3,524.1h-32.8v-3.2h32.8V524.1z M1863.3,516.7h-32.8v-3.2h32.8V516.7z M1863.3,509.4h-32.8v-3.2h32.8V509.4z M1863.3,502
	h-32.8v-3.2h32.8V502z M1863.3,494.6h-32.8v-3.2h32.8V494.6z M1863.3,487.3h-32.8v-3.2h32.8V487.3z M1863.3,479.9h-32.8v-3.2h32.8
	V479.9z M1863.3,472.5h-32.8v-3.2h32.8V472.5z M1863.3,465.2h-32.8V462h32.8V465.2z M1959.3,519.8h-59.8v-5.8h59.8V519.8z
	 M1959.3,506.4h-59.8v-5.8h59.8V506.4z M1959.3,492.9h-59.8v-5.8h59.8V492.9z M1959.3,479.4h-59.8v-5.8h59.8V479.4z M1959.3,466
	h-59.8v-5.8h59.8V466z M1959.3,452.5h-59.8v-5.8h59.8V452.5z M1959.3,439.1h-59.8v-5.8h59.8V439.1z M1959.3,425.6h-59.8v-5.8h59.8
	V425.6z M1959.3,412.1h-59.8v-5.8h59.8V412.1z M1985.5,440.9l5.8,1.6l2.3-9.1l-5.7-1.6c0.5-1.4,1.1-2.8,1.7-4.2l5.2,3.1l4.5-8.2
	l-5.1-3.1c0.8-1.2,1.7-2.4,2.6-3.6l4.2,4.4l2.3-2.5l27.9,29.4c-0.3,0.4-0.5,0.9-0.7,1.4H1991v-3.2h-6.1
	C1985,443.9,1985.2,442.4,1985.5,440.9z M1996.4,484.6c-0.9-1.2-1.8-2.4-2.6-3.6l5.6-3.4l-4.5-8.2l-5.5,3.4
	c-0.6-1.4-1.2-2.8-1.6-4.2l6.2-1.8l-2.3-9.1l-6.2,1.7c-0.2-1.5-0.4-3-0.5-4.5h6.1v-4.2h39.3c0,0.7,0.2,1.4,0.5,2.1L2003,482
	l-2.1-2.2L1996.4,484.6z M2034,497.1h-3v6.7c-1-0.1-3-0.4-4.7-0.7l1.8-6.5l-8.6-2.5l-1.7,6.5c-1.3-0.5-2.7-1.1-4-1.8l3.2-5.9
	l-7.8-4.7l-3.2,5.8c-1.2-0.9-2.3-1.8-3.4-2.8l4.5-4.8l-2.9-3l27.3-29c0.7,0.7,2.3,1.1,2.3,1.3V497.1z M2034,445
	c0,0.1-1.1,0.4-1.6,0.8l-27.8-29.4l2.7-2.8l-4.2-4.4c1.1-1,2.3-1.9,3.4-2.7l3,5.4l7.8-4.7l-3-5.4c1.3-0.6,2.6-1.2,4-1.7l1.5,6.1
	l8.7-2.5l-1.8-6c1.5-0.3,3.2-0.4,4.2-0.6v6.3h3V445z M2085.6,459.3l-6.1-1.7l-2.3,9.1l6.1,1.7c-0.5,1.4-1,2.8-1.6,4.2l-5.4-3.3
	l-4.5,8.2l5.5,3.3c-0.8,1.2-1.7,2.4-2.6,3.6l-4.4-4.7l-2.6,2.8l-27.7-29.1c0.5-0.8,0.8-1.7,0.8-2.7h39.2v4.2h6.1
	C2086,456.4,2085.9,457.9,2085.6,459.3z M2074.4,416c0.9,1.1,1.8,2.3,2.6,3.6l-5,3l4.5,8.2l5.1-3.1c0.6,1.4,1.2,2.7,1.7,4.2
	l-5.6,1.6l2.3,9.1l5.6-1.6c0.2,1.5,0.4,3,0.6,4.5h-6.1v3.2h-39.5c-0.2-0.7-0.6-1.4-1.1-1.9l28-29.4l2.9,3L2074.4,416z M2036,403.4h4
	v-6.2c2,0.1,2.7,0.3,3.9,0.5l-1.4,5.9l8.8,2.5l1.5-5.9c1.4,0.5,2.7,1.1,4,1.7l-2.9,5.3l7.8,4.7l2.9-5.3c1.2,0.9,2.3,1.8,3.4,2.7
	l-4.1,4.3l2.1,2.2l-28.4,29.6c-0.4-0.2-0.6-0.4-1.6-0.5V403.4z M2036,497.1v-41.2c1-0.2,1.7-0.5,2.3-0.9l27.8,29.1l-2.3,2.5l4.5,4.7
	c-1.1,1-2.2,1.9-3.4,2.8l-3.1-5.7l-7.8,4.7l3.2,5.8c-1.3,0.6-2.6,1.2-4,1.8l-1.6-6.4l-8.7,2.5l1.4,6.4c-1.3,0.3-2.3,0.5-4.3,0.6
	v-6.6H2036z M2118,497.1h-5v-20h5V497.1z M2118,469.7h-5v-20h5V469.7z M2118,442.3h-5v-20h5V442.3z M2127,497.1h-5v-20h5V497.1z
	 M2127,442.3h-5v-20h5V442.3z M2136,469.7h-5v-20h5V469.7z M2145,497.1h-5v-20h5V497.1z M2145,469.7h-5v-20h5V469.7z M2194.7,519.5
	h-8.7V350.1h8.7V519.5z M2215.2,518.8h-8.7v-9.1h8.7V518.8z M2215.2,502.8h-8.7v-9.1h8.7V502.8z M2215.2,486.9h-8.7v-9.1h8.7V486.9z
	 M2215.2,470.9h-8.7v-9.1h8.7V470.9z M2215.2,455h-8.7v-9.1h8.7V455z M2215.2,439h-8.7v-9.1h8.7V439z M2215.2,423h-8.7v-9.1h8.7V423
	z M2215.2,407.1h-8.7V398h8.7V407.1z M2215.2,391.1h-8.7V382h8.7V391.1z M2215.2,375.2h-8.7V366h8.7V375.2z M2215.2,359.2h-8.7v-9.1
	h8.7V359.2z M2230.9,518.8h-8.7v-9.1h8.7V518.8z M2230.9,502.8h-8.7v-9.1h8.7V502.8z M2230.9,486.9h-8.7v-9.1h8.7V486.9z
	 M2230.9,470.9h-8.7v-9.1h8.7V470.9z M2230.9,455h-8.7v-9.1h8.7V455z M2230.9,439h-8.7v-9.1h8.7V439z M2230.9,423h-8.7v-9.1h8.7V423
	z M2230.9,407.1h-8.7V398h8.7V407.1z M2230.9,391.1h-8.7V382h8.7V391.1z M2230.9,375.2h-8.7V366h8.7V375.2z M2230.9,359.2h-8.7v-9.1
	h8.7V359.2z M2246.5,518.8h-8.7v-9.1h8.7V518.8z M2246.5,502.8h-8.7v-9.1h8.7V502.8z M2246.5,486.9h-8.7v-9.1h8.7V486.9z
	 M2246.5,470.9h-8.7v-9.1h8.7V470.9z M2246.5,455h-8.7v-9.1h8.7V455z M2246.5,439h-8.7v-9.1h8.7V439z M2246.5,423h-8.7v-9.1h8.7V423
	z M2246.5,407.1h-8.7V398h8.7V407.1z M2246.5,391.1h-8.7V382h8.7V391.1z M2246.5,375.2h-8.7V366h8.7V375.2z M2246.5,359.2h-8.7v-9.1
	h8.7V359.2z M2262.2,518.8h-8.7v-9.1h8.7V518.8z M2262.2,502.8h-8.7v-9.1h8.7V502.8z M2262.2,486.9h-8.7v-9.1h8.7V486.9z
	 M2262.2,470.9h-8.7v-9.1h8.7V470.9z M2262.2,455h-8.7v-9.1h8.7V455z M2262.2,439h-8.7v-9.1h8.7V439z M2262.2,423h-8.7v-9.1h8.7V423
	z M2262.2,407.1h-8.7V398h8.7V407.1z M2262.2,391.1h-8.7V382h8.7V391.1z M2262.2,375.2h-8.7V366h8.7V375.2z M2262.2,359.2h-8.7v-9.1
	h8.7V359.2z M2282.2,519.5h-8.7V350.1h8.7V519.5z M2422,489.8h-88.8v-24.7h88.8V489.8z M2422,452.3h-88.8v-24.7h88.8V452.3z
	 M2422,414.7h-88.8V390h88.8V414.7z M2422,377.2h-88.8v-24.7h88.8V377.2z M2422,339.7h-88.8v-24.7h88.8V339.7z M2422,302.1h-88.8
	v-24.7h88.8V302.1z M2486.4,475.4h-8.7V305.9h8.7V475.4z M2506.9,474.7h-8.7v-9.1h8.7V474.7z M2506.9,458.7h-8.7v-9.1h8.7V458.7z
	 M2506.9,442.7h-8.7v-9.1h8.7V442.7z M2506.9,426.8h-8.7v-9.1h8.7V426.8z M2506.9,410.8h-8.7v-9.1h8.7V410.8z M2506.9,394.9h-8.7
	v-9.1h8.7V394.9z M2506.9,378.9h-8.7v-9.1h8.7V378.9z M2506.9,362.9h-8.7v-9.1h8.7V362.9z M2506.9,347h-8.7v-9.1h8.7V347z
	 M2506.9,331h-8.7v-9.1h8.7V331z M2506.9,315.1h-8.7v-9.1h8.7V315.1z M2522.6,474.7h-8.7v-9.1h8.7V474.7z M2522.6,458.7h-8.7v-9.1
	h8.7V458.7z M2522.6,442.7h-8.7v-9.1h8.7V442.7z M2522.6,426.8h-8.7v-9.1h8.7V426.8z M2522.6,410.8h-8.7v-9.1h8.7V410.8z
	 M2522.6,394.9h-8.7v-9.1h8.7V394.9z M2522.6,378.9h-8.7v-9.1h8.7V378.9z M2522.6,362.9h-8.7v-9.1h8.7V362.9z M2522.6,347h-8.7v-9.1
	h8.7V347z M2522.6,331h-8.7v-9.1h8.7V331z M2522.6,315.1h-8.7v-9.1h8.7V315.1z M2538.2,474.7h-8.7v-9.1h8.7V474.7z M2538.2,458.7
	h-8.7v-9.1h8.7V458.7z M2538.2,442.7h-8.7v-9.1h8.7V442.7z M2538.2,426.8h-8.7v-9.1h8.7V426.8z M2538.2,410.8h-8.7v-9.1h8.7V410.8z
	 M2538.2,394.9h-8.7v-9.1h8.7V394.9z M2538.2,378.9h-8.7v-9.1h8.7V378.9z M2538.2,362.9h-8.7v-9.1h8.7V362.9z M2538.2,347h-8.7v-9.1
	h8.7V347z M2538.2,331h-8.7v-9.1h8.7V331z M2538.2,315.1h-8.7v-9.1h8.7V315.1z M2553.9,474.7h-8.7v-9.1h8.7V474.7z M2553.9,458.7
	h-8.7v-9.1h8.7V458.7z M2553.9,442.7h-8.7v-9.1h8.7V442.7z M2553.9,426.8h-8.7v-9.1h8.7V426.8z M2553.9,410.8h-8.7v-9.1h8.7V410.8z
	 M2553.9,394.9h-8.7v-9.1h8.7V394.9z M2553.9,378.9h-8.7v-9.1h8.7V378.9z M2553.9,362.9h-8.7v-9.1h8.7V362.9z M2553.9,347h-8.7v-9.1
	h8.7V347z M2553.9,331h-8.7v-9.1h8.7V331z M2553.9,315.1h-8.7v-9.1h8.7V315.1z M2573.9,475.4h-8.7V305.9h8.7V475.4z M2631.8,502.2
	h-8.7v-9.1h8.7V502.2z M2631.8,484.1h-8.7V475h8.7V484.1z M2631.8,466.1h-8.7V457h8.7V466.1z M2631.8,448h-8.7v-9.1h8.7V448z
	 M2631.8,429.9h-8.7v-9.1h8.7V429.9z M2631.8,411.9h-8.7v-9.1h8.7V411.9z M2631.8,393.8h-8.7v-9.1h8.7V393.8z M2631.8,375.7h-8.7
	v-9.1h8.7V375.7z M2631.8,357.7h-8.7v-9.1h8.7V357.7z M2631.8,339.6h-8.7v-9.1h8.7V339.6z M2631.8,321.6h-8.7v-9.1h8.7V321.6z
	 M2631.8,303.5h-8.7v-9.1h8.7V303.5z M2631.8,285.4h-8.7v-9.1h8.7V285.4z M2631.8,267.4h-8.7v-9.1h8.7V267.4z M2631.8,249.3h-8.7
	v-9.1h8.7V249.3z M2631.8,231.4h-8.7v-9.1h8.7V231.4z M2631.8,213.5h-8.7v-9.1h8.7V213.5z M2631.8,195.6h-8.7v-9.1h8.7V195.6z
	 M2631.8,177.7h-8.7v-9.1h8.7V177.7z M2693.9,524.2h-8.7V354.7h8.7V524.2z M2714.4,523.5h-8.7v-9.1h8.7V523.5z M2714.4,507.5h-8.7
	v-9.1h8.7V507.5z M2714.4,491.6h-8.7v-9.1h8.7V491.6z M2714.4,475.6h-8.7v-9.1h8.7V475.6z M2714.4,459.6h-8.7v-9.1h8.7V459.6z
	 M2714.4,443.7h-8.7v-9.1h8.7V443.7z M2714.4,427.7h-8.7v-9.1h8.7V427.7z M2714.4,411.8h-8.7v-9.1h8.7V411.8z M2714.4,395.8h-8.7
	v-9.1h8.7V395.8z M2714.4,379.8h-8.7v-9.1h8.7V379.8z M2714.4,363.9h-8.7v-9.1h8.7V363.9z M2730.1,523.5h-8.7v-9.1h8.7V523.5z
	 M2730.1,507.5h-8.7v-9.1h8.7V507.5z M2730.1,491.6h-8.7v-9.1h8.7V491.6z M2730.1,475.6h-8.7v-9.1h8.7V475.6z M2730.1,459.6h-8.7
	v-9.1h8.7V459.6z M2730.1,443.7h-8.7v-9.1h8.7V443.7z M2730.1,427.7h-8.7v-9.1h8.7V427.7z M2730.1,411.8h-8.7v-9.1h8.7V411.8z
	 M2730.1,395.8h-8.7v-9.1h8.7V395.8z M2730.1,379.8h-8.7v-9.1h8.7V379.8z M2730.1,363.9h-8.7v-9.1h8.7V363.9z M2745.7,523.5h-8.7
	v-9.1h8.7V523.5z M2745.7,507.5h-8.7v-9.1h8.7V507.5z M2745.7,491.6h-8.7v-9.1h8.7V491.6z M2745.7,475.6h-8.7v-9.1h8.7V475.6z
	 M2745.7,459.6h-8.7v-9.1h8.7V459.6z M2745.7,443.7h-8.7v-9.1h8.7V443.7z M2745.7,427.7h-8.7v-9.1h8.7V427.7z M2745.7,411.8h-8.7
	v-9.1h8.7V411.8z M2745.7,395.8h-8.7v-9.1h8.7V395.8z M2745.7,379.8h-8.7v-9.1h8.7V379.8z M2745.7,363.9h-8.7v-9.1h8.7V363.9z
	 M2761.4,523.5h-8.7v-9.1h8.7V523.5z M2761.4,507.5h-8.7v-9.1h8.7V507.5z M2761.4,491.6h-8.7v-9.1h8.7V491.6z M2761.4,475.6h-8.7
	v-9.1h8.7V475.6z M2761.4,459.6h-8.7v-9.1h8.7V459.6z M2761.4,443.7h-8.7v-9.1h8.7V443.7z M2761.4,427.7h-8.7v-9.1h8.7V427.7z
	 M2761.4,411.8h-8.7v-9.1h8.7V411.8z M2761.4,395.8h-8.7v-9.1h8.7V395.8z M2761.4,379.8h-8.7v-9.1h8.7V379.8z M2761.4,363.9h-8.7
	v-9.1h8.7V363.9z M2781.4,524.2h-8.7V354.7h8.7V524.2z M3009.1,461.8h-12.8V449h12.8V461.8z M3009.1,443.5h-12.8v-12.8h12.8V443.5z
	 M3009.1,407h-12.8v-12.8h12.8V407z M3009.1,388.7h-12.8V376h12.8V388.7z M3009.1,352.2h-12.8v-12.8h12.8V352.2z M3009.1,334h-12.8
	v-12.8h12.8V334z M3027.4,461.8h-11V449h11V461.8z M3027.4,425.3h-11v-12.8h11V425.3z M3027.4,407h-11v-12.8h11V407z M3027.4,388.7
	h-11V376h11V388.7z M3027.4,370.5h-11v-12.8h11V370.5z M3027.4,352.2h-11v-12.8h11V352.2z M3027.4,334h-11v-12.8h11V334z
	 M3047.5,461.8h-11V449h11V461.8z M3047.5,443.5h-11v-12.8h11V443.5z M3047.5,425.3h-11v-12.8h11V425.3z M3047.5,407h-11v-12.8h11
	V407z M3047.5,370.5h-11v-12.8h11V370.5z M3047.5,352.2h-11v-12.8h11V352.2z M3065.7,461.8h-11V449h11V461.8z M3065.7,443.5h-11
	v-12.8h11V443.5z M3065.7,425.3h-11v-12.8h11V425.3z M3065.7,407h-11v-12.8h11V407z M3065.7,388.7h-11V376h11V388.7z M3065.7,370.5
	h-11v-12.8h11V370.5z M3065.7,352.2h-11v-12.8h11V352.2z M3065.7,334h-11v-12.8h11V334z M3139.1,495h-5.3v-24.9h5.3V495z
	 M3155.1,495h-5.3v-24.9h5.3V495z M3171.1,495h-5.3v-24.9h5.3V495z M3212,495h-5.3v-24.9h5.3V495z M3212,450.5h-5.3v-24.9h5.3V450.5
	z M3212,406h-5.3v-24.9h5.3V406z M3228,495h-5.3v-24.9h5.3V495z M3228,450.5h-5.3v-24.9h5.3V450.5z M3228,406h-5.3v-24.9h5.3V406z
	 M3244,495h-5.3v-24.9h5.3V495z M3244,450.5h-5.3v-24.9h5.3V450.5z M3244,406h-5.3v-24.9h5.3V406z M3469.6,499h-8.9v-14.6h8.9V499z
	 M3469.6,473.4h-8.9v-14.6h8.9V473.4z M3469.6,447.8h-8.9v-14.6h8.9V447.8z M3469.6,422.3h-8.9v-14.6h8.9V422.3z M3469.6,396.7h-8.9
	v-14.6h8.9V396.7z M3469.6,371.1h-8.9v-14.6h8.9V371.1z M3469.6,345.6h-8.9V331h8.9V345.6z M3469.6,312.7h-8.9v-14.6h8.9V312.7z
	 M3487.3,499h-8.9v-14.6h8.9V499z M3487.3,473.4h-8.9v-14.6h8.9V473.4z M3487.3,447.8h-8.9v-14.6h8.9V447.8z M3487.3,422.3h-8.9
	v-14.6h8.9V422.3z M3487.3,396.7h-8.9v-14.6h8.9V396.7z M3487.3,371.1h-8.9v-14.6h8.9V371.1z M3487.3,345.6h-8.9V331h8.9V345.6z
	 M3487.3,312.7h-8.9v-14.6h8.9V312.7z M3505.1,499h-8.9v-14.6h8.9V499z M3505.1,473.4h-8.9v-14.6h8.9V473.4z M3505.1,447.8h-8.9
	v-14.6h8.9V447.8z M3505.1,422.3h-8.9v-14.6h8.9V422.3z M3505.1,396.7h-8.9v-14.6h8.9V396.7z M3505.1,371.1h-8.9v-14.6h8.9V371.1z
	 M3505.1,345.6h-8.9V331h8.9V345.6z M3505.1,312.7h-8.9v-14.6h8.9V312.7z M3617.3,485.8h-30v-8.8h30V485.8z M3617.3,468.1h-30v-8.8
	h30V468.1z M3617.3,450.4h-30v-8.8h30V450.4z M3617.3,415h-30v-8.8h30V415z M3617.3,397.4h-30v-8.8h30V397.4z M3617.3,379.7h-30
	v-8.8h30V379.7z M3617.3,344.3h-30v-8.8h30V344.3z M3617.3,326.6h-30v-8.8h30V326.6z M3617.3,308.9h-30v-8.8h30V308.9z
	 M3617.3,291.2h-30v-8.8h30V291.2z M3617.3,273.5h-30v-8.8h30V273.5z M3617.3,255.9h-30V247h30V255.9z M3617.3,238.2h-30v-8.8h30
	V238.2z M3617.3,220.5h-30v-8.8h30V220.5z M3617.3,185.1h-30v-8.8h30V185.1z M3617.3,167.4h-30v-8.8h30V167.4z M3658.3,485.8h-27
	v-8.8h27V485.8z M3658.3,468.1h-27v-8.8h27V468.1z M3658.3,450.4h-27v-8.8h27V450.4z M3658.3,415h-27v-8.8h27V415z M3658.3,397.4
	h-27v-8.8h27V397.4z M3658.3,379.7h-27v-8.8h27V379.7z M3658.3,344.3h-27v-8.8h27V344.3z M3658.3,326.6h-27v-8.8h27V326.6z
	 M3658.3,308.9h-27v-8.8h27V308.9z M3658.3,291.2h-27v-8.8h27V291.2z M3658.3,273.5h-27v-8.8h27V273.5z M3658.3,255.9h-27V247h27
	V255.9z M3658.3,238.2h-27v-8.8h27V238.2z M3658.3,220.5h-27v-8.8h27V220.5z M3658.3,185.1h-27v-8.8h27V185.1z M3658.3,167.4h-27
	v-8.8h27V167.4z M3394.9,302.8h-84.6V529h84.6V302.8z M3325.8,481.5h-9.1v-31h9.1V481.5z M3325.8,443.2h-9.1v-32.9h9.1V443.2z
	 M3325.8,403h-9.1v-32.9h9.1V403z M3325.8,362.8h-9.1V330h9.1V362.8z M3340.4,443.2h-9.1v-32.9h9.1V443.2z M3340.4,362.8h-9.1V330
	h9.1V362.8z M3356.8,481.5h-9.1v-31h9.1V481.5z M3356.8,443.2h-9.1v-32.9h9.1V443.2z M3356.8,403h-9.1v-32.9h9.1V403z M3371.5,481.5
	h-9.1v-31h9.1V481.5z M3371.5,403h-9.1v-32.9h9.1V403z M3371.5,362.8h-9.1V330h9.1V362.8z M3387.9,481.5h-9.1v-31h9.1V481.5z
	 M3387.9,443.2h-9.1v-32.9h9.1V443.2z M3387.9,362.8h-9.1V330h9.1V362.8z M3829.4,333.2H3716V529h113.4V333.2z M3755.9,492.9h-10.3
	v-12.9h10.3V492.9z M3755.9,474.9h-10.3V462h10.3V474.9z M3755.9,456.9h-10.3V444h10.3V456.9z M3755.9,438.8h-10.3v-12.9h10.3V438.8
	z M3755.9,420.8h-10.3v-12.9h10.3V420.8z M3755.9,402.8h-10.3v-12.9h10.3V402.8z M3755.9,384.7h-10.3v-12.9h10.3V384.7z
	 M3755.9,366.7h-10.3v-12.9h10.3V366.7z M3776.5,492.9h-10.3v-12.9h10.3V492.9z M3776.5,474.9h-10.3V462h10.3V474.9z M3776.5,456.9
	h-10.3V444h10.3V456.9z M3776.5,438.8h-10.3v-12.9h10.3V438.8z M3776.5,420.8h-10.3v-12.9h10.3V420.8z M3776.5,402.8h-10.3v-12.9
	h10.3V402.8z M3776.5,384.7h-10.3v-12.9h10.3V384.7z M3776.5,366.7h-10.3v-12.9h10.3V366.7z M3797.2,492.9h-10.3v-12.9h10.3V492.9z
	 M3797.2,474.9h-10.3V462h10.3V474.9z M3797.2,456.9h-10.3V444h10.3V456.9z M3797.2,438.8h-10.3v-12.9h10.3V438.8z M3797.2,420.8
	h-10.3v-12.9h10.3V420.8z M3797.2,402.8h-10.3v-12.9h10.3V402.8z M3797.2,384.7h-10.3v-12.9h10.3V384.7z M3797.2,366.7h-10.3v-12.9
	h10.3V366.7z M2848.6,529l3.3-1.2l5.3-40.5h63.1l4.9,40.5l3.3,1.2h30.6l-29.2-85.7h3.7v-18.5h-9l-21.3-101.9h4.8v-18.5h-8.7
	l-7.5-30.4V221h-9.3v52.9l-5.2,30.4h-11v18.5h7.1l-21.3,101.9h-13.6v18.5h8.3L2818,529H2848.6z M2885.8,322.9h5.8l11,50.9h-27.3
	L2885.8,322.9z M2873.4,383.1h31.2l9,41.7h-48.8L2873.4,383.1z M2861.6,454.9h54.8l2.8,23.2h-60.7L2861.6,454.9z M135,354H17.5v174
	H135V354z M40.1,510H25v-18h15.1V510z M40.1,489.8H25v-20.2h15.1V489.8z M40.1,444.9H25v-15.7h15.1V444.9z M40.1,427H25v-18h15.1
	V427z M40.1,404.5H25v-18h15.1V404.5z M61.2,489.8H49.1v-20.2h12.1V489.8z M61.2,444.9H49.1v-15.7h12.1V444.9z M82.3,510H70.2v-18
	h12.1V510z M82.3,489.8H70.2v-20.2h12.1V489.8z M82.3,467.4H70.2v-18h12.1V467.4z M82.3,444.9H70.2v-15.7h12.1V444.9z M82.3,427
	H70.2v-18h12.1V427z M82.3,404.5H70.2v-18h12.1V404.5z M103.4,489.8H91.3v-20.2h12.1V489.8z M103.4,467.4H91.3v-18h12.1V467.4z
	 M103.4,427H91.3v-18h12.1V427z M124.5,510h-9v-18h9V510z M124.5,489.8h-9v-20.2h9V489.8z M124.5,444.9h-9v-15.7h9V444.9z
	 M124.5,427h-9v-18h9V427z M124.5,404.5h-9v-18h9V404.5z"/>
</svg>
