<?xml version="1.0" encoding="utf-8"?>
<!-- Generator: Adobe Illustrator 21.1.0, SVG Export Plug-In . SVG Version: 6.00 Build 0)  -->
<svg version="1.1" id="Layer_1" xmlns="http://www.w3.org/2000/svg" xmlns:xlink="http://www.w3.org/1999/xlink" x="0px" y="0px"
	 viewBox="0 0 1306.7 384.8" style="enable-background:new 0 0 1306.7 384.8;" xml:space="preserve">
<style type="text/css">
	.st0{fill:#FFFFFF;}
	.st1{fill:#333333;}
	.st2{fill:#0097BF;}
</style>
<path class="st0" d="M0,381.7c177.9-69.9,352.9-69.2,529.9,2.1C440.6,262.6,352.7,143.3,264.2,23.3C176,142.9,88.7,261.3,0,381.7z"
	/>
<path class="st1" d="M0,381.7C88.7,261.3,176,142.9,264.2,23.3c88.5,120.1,176.4,239.4,265.7,360.5C352.9,312.5,177.9,311.7,0,381.7
	z"/>
<path class="st0" d="M264.2-1C177,117.3,90.5,234.6,2.9,353.5c175.5-68.3,349.1-67.6,524,2C438.7,235.7,351.8,117.9,264.2-1z"/>
<path class="st2" d="M264.2-1c87.6,118.9,174.5,236.7,262.7,356.5c-174.9-69.6-348.5-70.3-524-2C90.5,234.6,177,117.3,264.2-1z"/>
<g>
	<path class="st2" d="M551.8,198.9c0-11.3,4.5-19,13.4-23.3c8.9-4.3,22-6.4,39.1-6.4h12.6v-6.3c0-9.6-2.5-17.9-7.4-24.9
		c-5-7-12.4-10.5-22.3-10.5c-4.1,0-7.9,0.5-11.4,1.5c-3.5,1-6.3,2-8.2,3c-2,1.1-3.2,1.6-3.8,1.6c-1.2,0-2.2-0.5-2.9-1.6
		c-0.8-1-1.1-2-1.1-2.9c0-2.3,3-4.4,8.9-6.4c5.9-2,12.3-3,19-3c12.9,0,22.3,4.1,28.3,12.3c5.9,8.2,8.9,18.5,8.9,31v60.4
		c0,2.7-1.3,4.1-3.8,4.1c-1.2,0-2.2-0.4-2.9-1.1c-0.8-0.8-1.1-1.7-1.1-2.9v-11.7c-9.9,11.4-21.2,17.1-33.8,17.1
		c-9.3,0-16.9-2.5-22.6-7.5C554.7,216.1,551.8,208.7,551.8,198.9z M559.7,198.9c0,7.2,2.1,12.7,6.4,16.3c4.3,3.7,9.9,5.5,16.8,5.5
		c8.1,0,15.8-2.9,23.1-8.6c7.3-5.7,10.9-11.1,10.9-16.2v-18.9h-12.4c-6.8,0-12.4,0.2-17,0.7c-4.6,0.5-9.2,1.4-13.9,2.8
		c-4.7,1.4-8.2,3.7-10.5,6.8C560.8,190.4,559.7,194.3,559.7,198.9z"/>
	<path class="st2" d="M654.5,223.3v-98.5c0-2.6,1.3-3.8,3.8-3.8c2.7,0,4.1,1.3,4.1,3.8v11.9c6.5-11.4,16.5-17.1,30.2-17.1
		c11.1,0,20.7,4,28.6,11.9c8,8,11.9,17.5,11.9,28.6v63.1c0,2.7-1.4,4.1-4.1,4.1c-2.6,0-3.8-1.4-3.8-4.1v-63.1c0-8.4-3.2-16-9.6-22.6
		c-6.4-6.7-13.9-10-22.4-10c-8.1,0-15.3,3-21.5,9c-6.2,6-9.4,13.9-9.4,23.7v63.1c0,1.1-0.4,2-1.2,2.8c-0.8,0.8-1.8,1.2-2.8,1.2
		c-1.1,0-2-0.4-2.7-1.2C654.9,225.3,654.5,224.3,654.5,223.3z"/>
	<path class="st2" d="M756.2,214c0-1,0.3-2,1-2.7c0.7-0.8,1.4-1.1,2.1-1.1c0.8,0,1.9,0.6,3.4,1.8l4.7,3.6c1.8,1.2,4.6,2.4,8.5,3.5
		c3.8,1.1,8.1,1.7,13,1.7c8.9,0,15.5-1.7,19.8-5.2c4.4-3.5,6.5-8,6.5-13.5c0-6.5-2-11.5-5.9-15.2c-3.9-3.7-8.6-6.3-14.2-8l-16.7-5.2
		c-5.6-1.8-10.3-4.7-14.2-8.7c-3.9-4-5.9-9.4-5.9-16.1c0-7.7,2.9-14.5,8.6-20.4c5.7-5.9,14-8.9,24.8-8.9c6.6,0,12.8,1.1,18.7,3.2
		c5.9,2.1,8.8,4.2,8.8,6.3c0,0.9-0.4,1.9-1.2,2.9c-0.8,1.1-1.7,1.6-2.6,1.6c-0.2,0-2.7-1-7.8-3c-5-2-10.3-3-15.7-3
		c-8.7,0-15.2,2.2-19.4,6.6c-4.2,4.4-6.3,9.2-6.3,14.4c0,5.4,2,9.6,5.9,12.8c3.9,3.1,8.7,5.5,14.2,7.2c5.5,1.6,11.1,3.3,16.7,4.9
		c5.6,1.7,10.3,4.8,14.2,9.5c3.9,4.7,5.8,10.9,5.8,18.7c0,8.4-3,15-9,19.8c-6,4.8-14.4,7.2-25,7.2c-9.3,0-17.1-1.7-23.4-5
		C759.3,220.4,756.2,217.2,756.2,214z"/>
	<path class="st2" d="M845.8,83.7c-1.4-1.4-2.1-3.1-2.1-5.1c0-2,0.7-3.6,2.1-5c1.4-1.4,3.1-2,5.1-2c2,0,3.6,0.7,5,2c1.4,1.4,2,3,2,5
		c0,2-0.7,3.6-2,5.1c-1.4,1.4-3,2.1-5,2.1C848.9,85.8,847.2,85.1,845.8,83.7z M847,223.3v-98.5c0-1,0.4-2,1.1-2.7
		c0.8-0.8,1.7-1.1,2.7-1.1c2.7,0,4.1,1.3,4.1,3.8v98.5c0,1.1-0.4,2-1.2,2.8c-0.8,0.8-1.8,1.2-2.8,1.2c-1.1,0-2-0.4-2.7-1.2
		C847.4,225.3,847,224.3,847,223.3z"/>
	<path class="st2" d="M881.5,187.7v-27.5c0-11.1,4-20.7,11.9-28.6c8-8,17.5-11.9,28.6-11.9c13.7,0,23.7,5.7,30.2,17.1V58.1
		c0-2.6,1.4-3.8,4.1-3.8c2.6,0,3.8,1.3,3.8,3.8v165.2c0,1.1-0.4,2-1.1,2.8c-0.8,0.8-1.7,1.2-2.7,1.2c-1.1,0-2-0.4-2.8-1.2
		c-0.8-0.8-1.2-1.8-1.2-2.8v-11.7c-2.6,4.8-6.6,8.9-12.3,12.2c-5.6,3.3-11.8,5-18.4,5c-10.7,0-20-4.1-28.1-12.4
		C885.5,208,881.5,198.5,881.5,187.7z M889.4,187.7c0,8.6,3.2,16.2,9.6,23c6.4,6.8,13.8,10.1,22.2,10.1c8.1,0,15.3-3,21.6-8.9
		c6.3-5.9,9.5-11.2,9.5-15.9v-35.8c0-9.8-3.1-17.7-9.4-23.7c-6.2-6-13.4-9-21.5-9c-8.6,0-16,3.3-22.4,10c-6.4,6.7-9.6,14.2-9.6,22.6
		V187.7z"/>
	<path class="st2" d="M991.2,223.3V58.1c0-2.6,1.3-3.8,3.8-3.8c2.7,0,4.1,1.3,4.1,3.8v78.7c6.5-11.4,16.5-17.1,30.2-17.1
		c11.1,0,20.7,4,28.6,11.9c8,8,11.9,17.5,11.9,28.6v63.1c0,2.7-1.4,4.1-4.1,4.1c-2.6,0-3.8-1.4-3.8-4.1v-63.1c0-8.4-3.2-16-9.6-22.6
		c-6.4-6.7-13.9-10-22.4-10c-8.1,0-15.3,3-21.5,9c-6.2,6-9.4,13.9-9.4,23.7v63.1c0,1.1-0.4,2-1.2,2.8c-0.8,0.8-1.8,1.2-2.8,1.2
		c-1.1,0-2-0.4-2.7-1.2C991.6,225.3,991.2,224.3,991.2,223.3z"/>
	<path class="st2" d="M1095.6,187.7v-27.5c0-10.8,3.9-20.3,11.8-28.4c7.9-8.1,17.2-12.2,28.1-12.2c10.8,0,20.2,4,28.2,11.9
		c8,8,11.9,17.5,11.9,28.6v27.5c0,10.8-4,20.4-12.1,28.6c-8,8.3-17.4,12.4-28.1,12.4c-10.7,0-20-4.1-27.9-12.4
		C1099.6,208,1095.6,198.5,1095.6,187.7z M1103.5,187.7c0,8.6,3.2,16.2,9.5,23s13.8,10.1,22.5,10.1c8.7,0,16.3-3.4,22.7-10.1
		c6.4-6.8,9.6-14.4,9.6-23v-27.5c0-8.4-3.2-16-9.5-22.6c-6.3-6.7-13.9-10-22.8-10c-8.9,0-16.4,3.3-22.6,10
		c-6.2,6.7-9.4,14.2-9.4,22.6V187.7z"/>
	<path class="st2" d="M1191.1,125c0-1.2,0.4-2.2,1.2-2.9c0.8-0.8,1.8-1.1,2.8-1.1c1.8,0,3.1,0.8,3.8,2.5l32,88.6l31.8-87.2l0.2-1.1
		c0.3-0.6,0.5-0.9,0.6-1c0.1-0.1,0.3-0.3,0.6-0.8c0.3-0.5,0.6-0.7,1-0.8c0.4-0.1,0.9-0.1,1.5-0.1c1,0,2,0.4,2.9,1.1
		c0.9,0.8,1.4,1.7,1.4,2.7c0,0.5-0.3,1.6-0.9,3.4l-35.2,97.8c-0.8,1.8-2,2.7-3.8,2.7c-1.8,0-3.1-0.9-3.8-2.7l-35.2-97.8
		C1191.4,126.4,1191.1,125.3,1191.1,125z"/>
	<path class="st2" d="M1289.3,83.7c-1.4-1.4-2.1-3.1-2.1-5.1c0-2,0.7-3.6,2.1-5c1.4-1.4,3.1-2,5.1-2c2,0,3.6,0.7,5,2
		c1.4,1.4,2,3,2,5c0,2-0.7,3.6-2,5.1c-1.4,1.4-3,2.1-5,2.1C1292.4,85.8,1290.7,85.1,1289.3,83.7z M1290.5,223.3v-98.5
		c0-1,0.4-2,1.1-2.7c0.8-0.8,1.7-1.1,2.7-1.1c2.7,0,4.1,1.3,4.1,3.8v98.5c0,1.1-0.4,2-1.2,2.8c-0.8,0.8-1.8,1.2-2.8,1.2
		c-1.1,0-2-0.4-2.7-1.2C1290.9,225.3,1290.5,224.3,1290.5,223.3z"/>
</g>
<g>
	<path class="st1" d="M553.1,336.5v-13.1c0-5.9,1.7-10.7,5.1-14.4c3.4-3.7,8.4-5.5,14.9-5.5c4,0,7.4,0.7,10.2,2.2
		c2.8,1.5,4.1,2.9,4.1,4.2c0,0.5-0.2,0.9-0.6,1.3c-0.4,0.4-0.9,0.5-1.4,0.5c-0.4,0-1-0.4-1.9-1.1c-0.9-0.7-2.2-1.5-4-2.2
		s-3.9-1.1-6.4-1.1c-5.2,0-9.2,1.4-12,4.3c-2.8,2.8-4.2,6.8-4.2,11.8v13.1c0,5,1.4,9,4.2,11.8c2.8,2.8,6.8,4.3,12.1,4.3
		c2.7,0,5-0.4,6.8-1.1c1.9-0.8,3.2-1.5,4.2-2.2c0.9-0.7,1.6-1.1,2-1.1c0.5,0,0.9,0.2,1.3,0.5c0.4,0.4,0.5,0.8,0.5,1.3
		c0,1.4-1.4,2.8-4.3,4.3c-2.9,1.5-6.4,2.2-10.6,2.2c-6.6,0-11.5-1.8-14.9-5.5C554.8,347.3,553.1,342.5,553.1,336.5z"/>
	<path class="st1" d="M608.6,305.4c0-0.5,0.2-0.9,0.6-1.3c0.4-0.4,0.9-0.5,1.5-0.5c0.9,0,1.5,0.4,1.7,1.2l15.8,43.7l15.7-43.7
		c0.4-0.8,0.9-1.2,1.7-1.2c1.3,0,2,0.6,2,1.9c0,0.3,0,0.5-0.1,0.7l-17.5,48.3l-2.2,6c-0.4,1.2-1.2,3.1-2.3,5.8
		c-1.1,2.7-2.1,4.7-3.1,6.1c-0.9,1.4-2,2.9-3.3,4.6c-1.3,1.7-2.6,2.9-4.1,3.7c-1.5,0.8-3,1.1-4.6,1.1c-0.5,0-0.9-0.2-1.3-0.5
		c-0.4-0.4-0.5-0.8-0.5-1.3c0-1.3,0.5-2,1.6-2c1.2,0,2.4-0.3,3.6-0.9c1.2-0.6,2.3-1.6,3.3-3c1-1.4,1.9-2.7,2.6-3.8
		c0.7-1.1,1.5-2.8,2.5-5.2c1-2.4,1.7-4.1,2-5l2-5.6L608.8,306C608.7,305.7,608.6,305.5,608.6,305.4z"/>
	<path class="st1" d="M672.6,353.7v-80.1c0-1.2,0.6-1.9,1.9-1.9c1.3,0,2,0.6,2,1.9v38.1c3.1-5.5,8-8.3,14.6-8.3
		c5.4,0,10,1.9,13.9,5.8c3.9,3.9,5.8,8.5,5.8,13.9v13.3c0,5.2-1.9,9.9-5.8,13.9c-3.9,4-8.4,6-13.6,6c-3.2,0-6.2-0.8-8.9-2.4
		c-2.7-1.6-4.7-3.6-6-5.9v5.7c0,0.5-0.2,1-0.6,1.4c-0.4,0.4-0.9,0.6-1.4,0.6c-0.5,0-0.9-0.2-1.3-0.6
		C672.8,354.7,672.6,354.3,672.6,353.7z M676.4,340.5c0,2.3,1.5,4.8,4.6,7.7c3.1,2.9,6.6,4.3,10.5,4.3c4.1,0,7.7-1.6,10.8-4.9
		c3.1-3.3,4.6-7,4.6-11.1v-13.3c0-4.1-1.5-7.7-4.6-11c-3.1-3.2-6.7-4.9-10.9-4.9c-3.9,0-7.4,1.5-10.4,4.4c-3,2.9-4.5,6.7-4.5,11.5
		V340.5z"/>
	<path class="st1" d="M737.1,336.5v-13.7c0-5.2,1.9-9.8,5.7-13.6c3.8-3.8,8.4-5.7,13.7-5.7c5.2,0,9.8,1.9,13.6,5.6
		c3.8,3.8,5.7,8.4,5.7,14c0,1.9-0.2,3.4-0.7,4.6c-0.4,1.2-1.2,2-2.2,2.5c-1,0.5-1.9,0.8-2.8,0.9c-0.8,0.1-2,0.2-3.4,0.2h-25.9v5.1
		c0,4.9,1.7,8.8,5.1,11.7c3.4,2.9,7.9,4.4,13.3,4.4c2.7,0,5-0.4,6.8-1.1c1.8-0.8,3.2-1.5,4.1-2.2c0.9-0.7,1.6-1.1,2-1.1
		c0.5,0,1,0.2,1.4,0.7c0.4,0.4,0.6,0.9,0.6,1.3c0,0.7-0.6,1.6-1.7,2.6c-1.2,1-2.9,1.9-5.4,2.6c-2.4,0.8-5.1,1.1-8,1.1
		c-6.5,0-11.8-1.8-15.9-5.5C739.1,347.2,737.1,342.4,737.1,336.5z M740.9,327.5h24.6c2.7,0,4.5-0.3,5.3-0.8c0.8-0.5,1.3-1.6,1.3-3.3
		c0-4.2-1.5-7.9-4.4-11.2c-2.9-3.3-6.6-5-11.1-5c-4.4,0-8.1,1.5-11.1,4.6c-3,3.1-4.5,6.7-4.5,10.9V327.5z"/>
	<path class="st1" d="M802.8,353.7V306c0-1.2,0.6-1.9,1.9-1.9c1.3,0,2,0.6,2,1.9v5.8c3.3-5.5,8.3-8.3,15.2-8.3h4
		c0.5,0,0.9,0.2,1.3,0.6c0.4,0.4,0.5,0.9,0.5,1.4c0,0.5-0.2,0.9-0.5,1.3c-0.4,0.4-0.8,0.5-1.3,0.5h-4c-4.1,0-7.6,1.5-10.6,4.4
		c-3,2.9-4.5,6.7-4.5,11.5v30.6c0,0.5-0.2,1-0.6,1.4c-0.4,0.4-0.9,0.6-1.4,0.6c-0.5,0-0.9-0.2-1.3-0.6
		C803,354.7,802.8,354.3,802.8,353.7z"/>
	<path class="st1" d="M885.6,349.3c0-0.5,0.2-0.9,0.5-1.3c0.3-0.4,0.7-0.5,1-0.5c0.4,0,0.9,0.3,1.6,0.9l2.3,1.7
		c0.9,0.6,2.2,1.1,4.1,1.7c1.9,0.5,3.9,0.8,6.3,0.8c4.3,0,7.5-0.8,9.6-2.5c2.1-1.7,3.2-3.9,3.2-6.6c0-3.1-0.9-5.6-2.8-7.4
		c-1.9-1.8-4.2-3.1-6.9-3.9l-8.1-2.5c-2.7-0.9-5-2.3-6.9-4.2c-1.9-1.9-2.8-4.5-2.8-7.8c0-3.7,1.4-7,4.2-9.9c2.8-2.9,6.8-4.3,12-4.3
		c3.2,0,6.2,0.5,9.1,1.5c2.8,1,4.3,2,4.3,3.1c0,0.4-0.2,0.9-0.6,1.4c-0.4,0.5-0.8,0.8-1.3,0.8c-0.1,0-1.3-0.5-3.8-1.5
		c-2.4-1-5-1.5-7.6-1.5c-4.2,0-7.4,1.1-9.4,3.2c-2,2.1-3.1,4.5-3.1,7c0,2.6,1,4.7,2.9,6.2c1.9,1.5,4.2,2.7,6.9,3.5
		c2.7,0.8,5.4,1.6,8.1,2.4c2.7,0.8,5,2.3,6.9,4.6c1.9,2.3,2.8,5.3,2.8,9c0,4.1-1.5,7.3-4.4,9.6c-2.9,2.3-7,3.5-12.1,3.5
		c-4.5,0-8.3-0.8-11.4-2.4C887.1,352.4,885.6,350.8,885.6,349.3z"/>
	<path class="st1" d="M943,336.5v-13.7c0-5.2,1.9-9.8,5.7-13.6c3.8-3.8,8.4-5.7,13.7-5.7c5.2,0,9.8,1.9,13.6,5.6
		c3.8,3.8,5.7,8.4,5.7,14c0,1.9-0.2,3.4-0.7,4.6c-0.4,1.2-1.2,2-2.2,2.5c-1,0.5-1.9,0.8-2.8,0.9c-0.8,0.1-2,0.2-3.4,0.2h-25.9v5.1
		c0,4.9,1.7,8.8,5.1,11.7c3.4,2.9,7.9,4.4,13.3,4.4c2.7,0,5-0.4,6.8-1.1c1.8-0.8,3.2-1.5,4.1-2.2c0.9-0.7,1.6-1.1,2-1.1
		c0.5,0,1,0.2,1.4,0.7c0.4,0.4,0.6,0.9,0.6,1.3c0,0.7-0.6,1.6-1.7,2.6c-1.2,1-2.9,1.9-5.4,2.6c-2.4,0.8-5.1,1.1-8,1.1
		c-6.5,0-11.8-1.8-15.9-5.5C945.1,347.2,943,342.4,943,336.5z M946.9,327.5h24.6c2.7,0,4.5-0.3,5.3-0.8c0.8-0.5,1.3-1.6,1.3-3.3
		c0-4.2-1.5-7.9-4.4-11.2c-2.9-3.3-6.6-5-11.1-5c-4.4,0-8.1,1.5-11.1,4.6c-3,3.1-4.5,6.7-4.5,10.9V327.5z"/>
	<path class="st1" d="M1008.8,353.7V306c0-1.2,0.6-1.9,1.9-1.9c1.3,0,2,0.6,2,1.9v5.8c3.3-5.5,8.3-8.3,15.2-8.3h4
		c0.5,0,0.9,0.2,1.3,0.6c0.4,0.4,0.5,0.9,0.5,1.4c0,0.5-0.2,0.9-0.5,1.3c-0.4,0.4-0.8,0.5-1.3,0.5h-4c-4.1,0-7.6,1.5-10.6,4.4
		c-3,2.9-4.5,6.7-4.5,11.5v30.6c0,0.5-0.2,1-0.6,1.4c-0.4,0.4-0.9,0.6-1.4,0.6c-0.5,0-0.9-0.2-1.3-0.6
		C1009,354.7,1008.8,354.3,1008.8,353.7z"/>
	<path class="st1" d="M1052.4,306.1c0-0.6,0.2-1.1,0.6-1.4c0.4-0.4,0.9-0.5,1.4-0.5c0.9,0,1.5,0.4,1.9,1.2l15.5,42.9l15.4-42.3
		l0.1-0.5c0.1-0.3,0.2-0.5,0.3-0.5c0,0,0.1-0.2,0.3-0.4c0.1-0.2,0.3-0.3,0.5-0.4c0.2,0,0.4-0.1,0.7-0.1c0.5,0,1,0.2,1.4,0.5
		c0.4,0.4,0.7,0.8,0.7,1.3c0,0.2-0.1,0.8-0.4,1.6l-17,47.4c-0.4,0.9-1,1.3-1.9,1.3c-0.9,0-1.5-0.4-1.9-1.3l-17-47.4
		C1052.5,306.8,1052.4,306.3,1052.4,306.1z"/>
	<path class="st1" d="M1115.2,286.1c-0.7-0.7-1-1.5-1-2.5c0-0.9,0.3-1.7,1-2.4c0.7-0.7,1.5-1,2.5-1c0.9,0,1.7,0.3,2.4,1s1,1.5,1,2.4
		c0,0.9-0.3,1.8-1,2.5c-0.7,0.7-1.5,1-2.4,1C1116.7,287.1,1115.9,286.8,1115.2,286.1z M1115.8,353.7V306c0-0.5,0.2-0.9,0.5-1.3
		c0.4-0.4,0.8-0.5,1.3-0.5c1.3,0,2,0.6,2,1.9v47.7c0,0.5-0.2,1-0.6,1.4c-0.4,0.4-0.9,0.6-1.4,0.6c-0.5,0-0.9-0.2-1.3-0.6
		C1116,354.7,1115.8,354.3,1115.8,353.7z"/>
	<path class="st1" d="M1148,336.5v-13.1c0-5.9,1.7-10.7,5.1-14.4c3.4-3.7,8.4-5.5,14.9-5.5c4,0,7.4,0.7,10.2,2.2
		c2.8,1.5,4.1,2.9,4.1,4.2c0,0.5-0.2,0.9-0.6,1.3c-0.4,0.4-0.9,0.5-1.4,0.5c-0.4,0-1-0.4-1.9-1.1c-0.9-0.7-2.2-1.5-4-2.2
		s-3.9-1.1-6.4-1.1c-5.2,0-9.2,1.4-12,4.3c-2.8,2.8-4.2,6.8-4.2,11.8v13.1c0,5,1.4,9,4.2,11.8c2.8,2.8,6.8,4.3,12.1,4.3
		c2.7,0,5-0.4,6.8-1.1c1.9-0.8,3.2-1.5,4.2-2.2c0.9-0.7,1.6-1.1,2-1.1c0.5,0,0.9,0.2,1.3,0.5c0.4,0.4,0.5,0.8,0.5,1.3
		c0,1.4-1.4,2.8-4.3,4.3c-2.9,1.5-6.4,2.2-10.6,2.2c-6.6,0-11.5-1.8-14.9-5.5C1149.7,347.3,1148,342.5,1148,336.5z"/>
	<path class="st1" d="M1206.3,336.5v-13.7c0-5.2,1.9-9.8,5.7-13.6c3.8-3.8,8.4-5.7,13.7-5.7c5.2,0,9.8,1.9,13.6,5.6
		c3.8,3.8,5.7,8.4,5.7,14c0,1.9-0.2,3.4-0.7,4.6c-0.4,1.2-1.2,2-2.2,2.5c-1,0.5-1.9,0.8-2.8,0.9c-0.8,0.1-2,0.2-3.4,0.2h-25.9v5.1
		c0,4.9,1.7,8.8,5.1,11.7c3.4,2.9,7.9,4.4,13.3,4.4c2.7,0,5-0.4,6.8-1.1c1.8-0.8,3.2-1.5,4.1-2.2c0.9-0.7,1.6-1.1,2-1.1
		c0.5,0,1,0.2,1.4,0.7c0.4,0.4,0.6,0.9,0.6,1.3c0,0.7-0.6,1.6-1.7,2.6c-1.2,1-2.9,1.9-5.4,2.6c-2.4,0.8-5.1,1.1-8,1.1
		c-6.5,0-11.8-1.8-15.9-5.5C1208.4,347.2,1206.3,342.4,1206.3,336.5z M1210.2,327.5h24.6c2.7,0,4.5-0.3,5.3-0.8
		c0.8-0.5,1.3-1.6,1.3-3.3c0-4.2-1.5-7.9-4.4-11.2c-2.9-3.3-6.6-5-11.1-5c-4.4,0-8.1,1.5-11.1,4.6c-3,3.1-4.5,6.7-4.5,10.9V327.5z"
		/>
	<path class="st1" d="M1268.8,349.3c0-0.5,0.2-0.9,0.5-1.3c0.3-0.4,0.7-0.5,1-0.5c0.4,0,0.9,0.3,1.6,0.9l2.3,1.7
		c0.9,0.6,2.2,1.1,4.1,1.7c1.9,0.5,3.9,0.8,6.3,0.8c4.3,0,7.5-0.8,9.6-2.5c2.1-1.7,3.2-3.9,3.2-6.6c0-3.1-0.9-5.6-2.8-7.4
		c-1.9-1.8-4.2-3.1-6.9-3.9l-8.1-2.5c-2.7-0.9-5-2.3-6.9-4.2c-1.9-1.9-2.8-4.5-2.8-7.8c0-3.7,1.4-7,4.2-9.9c2.8-2.9,6.8-4.3,12-4.3
		c3.2,0,6.2,0.5,9.1,1.5c2.8,1,4.3,2,4.3,3.1c0,0.4-0.2,0.9-0.6,1.4c-0.4,0.5-0.8,0.8-1.3,0.8c-0.1,0-1.3-0.5-3.8-1.5
		c-2.4-1-5-1.5-7.6-1.5c-4.2,0-7.4,1.1-9.4,3.2c-2,2.1-3.1,4.5-3.1,7c0,2.6,1,4.7,2.9,6.2c1.9,1.5,4.2,2.7,6.9,3.5
		c2.7,0.8,5.4,1.6,8.1,2.4c2.7,0.8,5,2.3,6.9,4.6c1.9,2.3,2.8,5.3,2.8,9c0,4.1-1.5,7.3-4.4,9.6c-2.9,2.3-7,3.5-12.1,3.5
		c-4.5,0-8.3-0.8-11.4-2.4C1270.3,352.4,1268.8,350.8,1268.8,349.3z"/>
</g>
</svg>
